<?xml version="1.0" standalone="no"?>
<!DOCTYPE svg PUBLIC "-//W3C//DTD SVG 20010904//EN"
 "http://www.w3.org/TR/2001/REC-SVG-20010904/DTD/svg10.dtd">
<svg version="1.0" xmlns="http://www.w3.org/2000/svg"
 width="1024.000000pt" height="1024.000000pt" viewBox="0 0 1024.000000 1024.000000"
 preserveAspectRatio="xMidYMid meet">
<metadata>
Created by potrace 1.14, written by Peter Selinger 2001-2017
</metadata>
<g transform="translate(0.000000,1024.000000) scale(0.100000,-0.100000)"
fill="#000000" stroke="none">
<path d="M0 5120 l0 -5120 5120 0 5120 0 0 5120 0 5120 -5120 0 -5120 0 0
-5120z m2950 1298 c247 -56 410 -161 528 -341 178 -273 151 -700 -62 -983 -56
-76 -108 -123 -194 -178 -200 -129 -418 -176 -819 -176 l-183 0 0 -420 c0
-261 4 -438 11 -469 26 -124 98 -166 322 -186 l77 -7 0 -37 0 -36 -560 0 -560
0 0 36 0 36 86 12 c146 20 199 54 226 144 20 65 19 2342 -1 2411 -27 93 -88
130 -235 142 l-76 7 0 37 0 37 663 -2 662 -2 115 -25z m1970 -8 l0 -37 -82 -7
c-113 -9 -179 -40 -208 -95 -34 -67 -39 -161 -40 -670 l0 -484 63 5 c131 11
269 80 364 181 60 64 464 579 522 665 62 91 104 188 109 247 4 47 1 55 -27 87
-33 38 -114 68 -184 68 -36 0 -37 1 -37 40 l0 39 405 -2 405 -2 0 -37 c0 -35
-1 -36 -42 -43 -65 -10 -181 -60 -246 -104 -87 -59 -147 -129 -515 -600 l-337
-432 487 -682 c268 -375 506 -702 528 -726 55 -60 125 -105 212 -137 72 -26
73 -27 73 -63 l0 -36 -455 0 -455 0 0 36 0 36 70 12 c39 7 81 22 96 33 51 41
44 54 -328 614 -346 523 -431 635 -507 673 -40 21 -126 41 -172 41 l-30 0 3
-587 c3 -519 6 -594 21 -639 28 -86 76 -115 220 -135 l87 -12 0 -36 0 -36
-515 0 -515 0 0 37 0 36 61 7 c79 9 154 29 186 50 13 9 35 38 46 63 l22 47 3
1165 c2 843 -1 1180 -9 1220 -9 41 -21 64 -48 91 -41 42 -84 56 -188 66 l-73
6 0 37 0 37 515 0 515 0 0 -37z m2600 0 l0 -37 -79 -7 c-144 -12 -198 -42
-228 -130 -17 -47 -18 -112 -18 -926 0 -916 2 -973 46 -1174 39 -183 146 -343
270 -405 100 -50 188 -64 362 -58 243 8 351 49 483 181 123 124 182 253 227
498 22 121 22 137 22 948 0 761 -1 829 -18 882 -33 109 -125 170 -277 184
l-70 7 0 37 0 38 395 0 395 -1 0 -36 0 -37 -78 -10 c-97 -13 -159 -42 -191
-89 -54 -80 -54 -72 -61 -1005 -7 -729 -10 -880 -24 -960 -61 -357 -195 -561
-451 -688 -216 -107 -493 -128 -772 -57 -169 43 -290 115 -396 238 -141 163
-196 295 -228 547 -8 63 -14 388 -18 975 -6 818 -7 883 -24 920 -37 81 -88
109 -227 123 l-75 7 -3 36 -3 36 520 0 521 0 0 -37z"/>
<path d="M2385 6361 c-71 -18 -111 -48 -136 -103 l-24 -53 -3 -694 -3 -694
208 6 c236 6 333 21 433 70 90 45 197 151 239 239 128 271 121 738 -16 984
-38 69 -121 147 -196 184 -89 44 -227 70 -362 69 -60 -1 -123 -4 -140 -8z"/>
</g>
</svg>
