<svg xmlns="http://www.w3.org/2000/svg" width="659.136" height="138.611" viewBox="0 0 659.136 138.611"><defs><style>.a{opacity:0.41;}.b{fill:none;stroke:#000;stroke-miterlimit:10;stroke-width:0.5px;}.c{font-size:16.071px;font-family:Roboto-Regular, Roboto;}.d{font-family:Roboto-Regular;}</style></defs><g class="a" transform="translate(-5357.865 -2001.337)"><circle cx="6" cy="6" r="6" transform="translate(5399.964 2008.426)"/><circle cx="6" cy="6" r="6" transform="translate(5971.149 2079.868)"/><circle cx="6" cy="6" r="6" transform="translate(5665.69 2127.948)"/><line class="b" x1="292.31" y2="0.988" transform="translate(5724.691 2133.28)"/><line class="b" x1="69.681" y2="0.236" transform="translate(5891.713 2011.385)"/><line class="b" x1="139.534" y2="0.472" transform="translate(5357.866 2084.383)"/><text class="c" transform="translate(5553.417 2090.007) rotate(-0.194)"><tspan x="0" y="0">D</tspan><tspan class="d"><tspan x="0" y="19.286"></tspan></tspan></text><text class="c" transform="translate(5505.174 2018.169) rotate(-0.194)"><tspan x="0" y="0">A</tspan></text><text class="c" transform="translate(5553.417 2017.49) rotate(-0.194)"><tspan x="0" y="0">C</tspan></text><text class="c" transform="translate(5600.79 2017.3) rotate(-0.194)"><tspan x="0" y="0">O</tspan></text><text class="c" transform="translate(5648.463 2016.983) rotate(-0.194)"><tspan x="0" y="0">R</tspan></text><text class="c" transform="translate(5695.25 2016.888) rotate(-0.194)"><tspan x="0" y="0">D</tspan></text><text class="c" transform="translate(5742.477 2016.597) rotate(-0.194)"><tspan x="0" y="0">A</tspan></text><text class="c" transform="translate(5790.842 2016.489) rotate(-0.194)"><tspan x="0" y="0">T</tspan></text><text class="c" transform="translate(5839.909 2016.367) rotate(-0.194)"><tspan x="0" y="0">E</tspan></text><text class="c" transform="translate(5600.79 2089.635) rotate(-0.194)"><tspan x="0" y="0">E</tspan><tspan class="d"><tspan x="0" y="19.286"></tspan></tspan></text><text class="c" transform="translate(5790.842 2089.635) rotate(-0.194)"><tspan x="0" y="0">M</tspan><tspan class="d"><tspan x="0" y="19.286"></tspan></tspan></text><text class="c" transform="translate(5841.432 2089.635) rotate(-0.194)"><tspan x="0" y="0">Í</tspan><tspan class="d"><tspan x="0" y="19.286"></tspan></tspan></text></g></svg>