<svg xmlns="http://www.w3.org/2000/svg" xmlns:xlink="http://www.w3.org/1999/xlink" width="188.259" height="27.665" viewBox="0 0 188.259 27.665"><defs><style>.a{fill:none;}.b{fill:#ae1981;}.c{fill:#e60073;}.d{fill:#e62745;}.e{fill:#eb5d25;}.f{fill:#1d2b50;}.g{fill:#3a358a;}.h{fill:#114893;}.i{clip-path:url(#a);}</style><clipPath id="a"><rect class="a" width="188.259" height="27.665"/></clipPath></defs><path class="b" d="M70.862,43.92l.838.108.276.031.244-.038.321-.038.51.042.729.01L74.513,44l.248-.007.22.087.38.318.126.157.073.185.017.2-.045.2-.223.628-.126.269-.188.223-.1.045-.133.007-.307-.056-.328-.087-.276-.035-.2.052-.178.08-.181.08-.213.024-.593-.157-.335-.045-.387.066-.108.007L71.56,46.2l-.094-.052-.108-.028-.237,0-.087-.028-.049-.056L70.7,45.6l-.311-.36-.122-.161-.042-.2.073-.227.164-.241Z" transform="translate(-45.717 -28.59)"/><path class="c" d="M240.756,296.621l.419.161.213.077h.209l1.881-.084.754.063.59.147.265.07.154.063.122.091.133.237.021.227-.056.2-.1.122v.122h-2.454l-.611-.052-.611-.108-.544-.087-.394-.063-.154-.038-.108-.1-.154-.325-.07-.349Zm.415-1.661.237.147.157.091.168.042.122-.024.14-.066.14-.07.14-.028.241.087.258.091.216-.07.22-.066.262.1.126.045h.126l.806-.1.614.1.042.024v.108l-.024.08.024.08.154.091.171.066.07.056.045.077v.108l-.031.157-.056.077-.112.063-.349.073-1.1.045-1.581-.206-1.372-.255-.2-.084-.154-.178-.094-.216-.035-.2Z" transform="translate(-215.618 -283.393)"/><path class="d" d="M70.658,26.241l2.768.063.412-.084.534-.01.531.056.4.115.311.213.112.14.07.157.021.164-.049.168-.122.164-.213.161-.325.063-.562,0-1.515-.119-2.321-.262-.087-.042-.056-.091-.021-.283Z" transform="translate(-45.926 -17.062)"/><path class="e" d="M70.437,1.217l-.51.293-.45.342-.143.314-.185.262-.045.1-.014.094.028.1.171.464.293.188.346.387L70.175,4l.356.171.36.108h.5l.325.063.36.031.482.031.468.031L73.6,4.39l.436-.126.527-.22.234-.262.265-.251.216-.342-.014-.356-.094-.513-.562-.81-.5-.37-.244-.122L73.68.945,73.5.921l-.576.045L72.353.875,72.071.83,71.711.9l-.464.063-.3.112Z" transform="translate(-44.975 -0.54)"/><path class="f" d="M73.917,68.94l.586.052.607.223.178.164.147.136.307.07.143.035.1.091.154.695.01.443-.066.366-.133.23-.188.2-.5.318-.628.209-.7.108-.726.01-.691-.077-.607-.161-.464-.234-.147-.14-.1-.168-.126-.37-.042-.415.084-.363.188-.307.258-.258.625-.36.583-.164.586-.178Z" transform="translate(-46.238 -44.877)"/><path class="g" d="M71.511,56.4l.307-.017.314.031,1.784.175.5.08.475.129.213.133.192.2.161.279.126.38.094.646-.031.325-.122.3-.161.192-.22.164-.572.251-1.518.192-.475-.063-.468-.129-.457-.129-.454-.052-.635-.077-.475-.237-.318-.332-.171-.38-.042-.422.1-.36.206-.3.276-.241.593-.335.408-.14.1-.049.07-.073.073-.073Z" transform="translate(-45.281 -36.701)"/><path class="h" d="M457.87,277.122l4.154-9.49,4.188,9.49Zm4.168-15.3-11.867,27.1h2.544l4.161-9.5h10.338l4.188,9.5h2.513Z" transform="translate(-352.262 -261.82)"/><rect class="h" width="2.3" height="26.537" transform="translate(152.986 0.562)"/><path class="h" d="M208.992,12.354,196.87.137l.014,27.036h2.3V5.743l9.78,9.9,9.965-9.948v21.48h2.3V.12Z" transform="translate(-128.155 -0.078)"/><path class="h" d="M470.11,4V27.314h2.3V6.742l17.78,21.138V.777h-2.3v20.67L470.11.33Z" transform="translate(-306.025 -0.215)"/><g class="i"><path class="h" d="M534.878,265.8h8.838a4.729,4.729,0,0,1,4.726,4.635v.44a4.722,4.722,0,0,1-4.726,4.632h-8.838Zm14.373,24.22h2.6L545.485,277.6a7.037,7.037,0,0,0,5.236-6.241h0v-.143c0-.143.021-.286.021-.429h-.021v-.248h.021a2.926,2.926,0,0,0-.021-.429h0a7.04,7.04,0,0,0-7.026-6.607H532.56v26.527h2.3V277.81h8.119Z" transform="translate(-405.895 -262.914)"/><path class="h" d="M186.07,282.788h-.021a4.886,4.886,0,0,1-4.886,4.886h-9.222V277.8l9.543.035h0a4.639,4.639,0,0,1,3.948,2.115,5.393,5.393,0,0,1,.618,2.366h.021Zm-5.291-17.033h0A4.726,4.726,0,0,1,185.5,270.4v.415a4.74,4.74,0,0,1-4.722,4.677h-8.838v-9.742Zm7.578,16.4a6.663,6.663,0,0,0-3.379-5.759,7.037,7.037,0,0,0,2.817-5.092h0v-.143c0-.143.017-.286.017-.429h-.017v-.248h.017a3.5,3.5,0,0,0-.017-.429h0a7.044,7.044,0,0,0-7.026-6.611h0l-11.138-.017v26.527h11.564a7.2,7.2,0,0,0,7.155-7.054h0v-.764Z" transform="translate(-169.64 -262.868)"/><path class="h" d="M285.24,287.237a11.385,11.385,0,0,1-11.253-9.66h0a11.452,11.452,0,0,1-.035-3.141h0a11.386,11.386,0,1,1,11.291,12.792m-13.612-9.661a13.717,13.717,0,0,0,27.225,0,14.75,14.75,0,0,0,.1-1.675,13.225,13.225,0,0,0-.077-1.494,13.714,13.714,0,0,0-27.274,0h0a13.211,13.211,0,0,0-.077,1.494,13.962,13.962,0,0,0,.1,1.675" transform="translate(-235.973 -262.023)"/><path class="h" d="M701.335,264.448v-.419h.454c.181,0,.412.028.412.2,0,.272-.366.23-.579.23Zm.569.237c.3,0,.534-.129.534-.464s-.3-.447-.6-.447h-.74V265.5h.237v-.782h.286l.51.782h.286Zm-.227,1.253a1.309,1.309,0,1,1,1.316-1.305,1.309,1.309,0,0,1-1.316,1.305m0,.241a1.539,1.539,0,1,0-1.1-.447,1.55,1.55,0,0,0,1.1.447" transform="translate(-514.971 -262.64)"/></g></svg>