<svg xmlns="http://www.w3.org/2000/svg" width="659.137" height="138.61" viewBox="0 0 659.137 138.61"><defs><style>.a{fill:none;stroke:#000;stroke-miterlimit:10;stroke-width:0.5px;}.b{font-size:16.071px;font-family:Roboto-Regular, Roboto;}.c{font-family:Roboto-Regular;}</style></defs><g transform="translate(-2.676 -8440.625)"><circle cx="6" cy="6" r="6" transform="translate(44.775 8447.714)"/><circle cx="6" cy="6" r="6" transform="translate(615.96 8519.156)"/><circle cx="6" cy="6" r="6" transform="translate(310.501 8567.235)"/><line class="a" x1="292.31" y2="0.988" transform="translate(369.503 8572.568)"/><line class="a" x1="69.681" y2="0.236" transform="translate(536.524 8450.673)"/><line class="a" x1="139.534" y2="0.472" transform="translate(2.677 8523.671)"/><text class="b" transform="translate(198.228 8529.295) rotate(-0.194)"><tspan x="0" y="0">D</tspan><tspan class="c"><tspan x="0" y="19.286"></tspan></tspan></text><text class="b" transform="translate(149.986 8457.457) rotate(-0.194)"><tspan x="0" y="0">A</tspan></text><text class="b" transform="translate(198.228 8456.777) rotate(-0.194)"><tspan x="0" y="0">C</tspan></text><text class="b" transform="translate(245.601 8456.588) rotate(-0.194)"><tspan x="0" y="0">O</tspan></text><text class="b" transform="translate(293.275 8456.271) rotate(-0.194)"><tspan x="0" y="0">R</tspan></text><text class="b" transform="translate(340.062 8456.176) rotate(-0.194)"><tspan x="0" y="0">D</tspan></text><text class="b" transform="translate(387.289 8455.885) rotate(-0.194)"><tspan x="0" y="0">A</tspan></text><text class="b" transform="translate(435.654 8455.777) rotate(-0.194)"><tspan x="0" y="0">T</tspan></text><text class="b" transform="translate(484.72 8455.655) rotate(-0.194)"><tspan x="0" y="0">E</tspan></text><text class="b" transform="translate(245.601 8528.923) rotate(-0.194)"><tspan x="0" y="0">E</tspan><tspan class="c"><tspan x="0" y="19.286"></tspan></tspan></text><text class="b" transform="translate(435.654 8528.923) rotate(-0.194)"><tspan x="0" y="0">M</tspan><tspan class="c"><tspan x="0" y="19.286"></tspan></tspan></text><text class="b" transform="translate(486.244 8528.923) rotate(-0.194)"><tspan x="0" y="0">Í</tspan><tspan class="c"><tspan x="0" y="19.286"></tspan></tspan></text></g></svg>