<svg xmlns="http://www.w3.org/2000/svg" width="112.537" height="123.189" viewBox="0 0 112.537 123.189"><defs><style>.a{fill:#482a6d;}.a,.b,.c{fill-rule:evenodd;}.b{fill:#fff;}.c{fill:none;stroke:#fff;stroke-miterlimit:10;stroke-width:0.781px;}</style></defs><path class="a" d="M5767.208,6944.21c-9.884,8.517-83.279,30.979-84.529-22.877s3.307-67.038,22.25-82.212c14.87-11.913,66.588-7.658,84.527,22.876S5777.091,6935.691,5767.208,6944.21Z" transform="translate(-5682.486 -6832.972)"/><path class="b" d="M5720.765,6926.826h2.187a.38.38,0,1,0,0-.752h-2.187v-2.938h2.469a.379.379,0,1,0,0-.75h-2.877a.417.417,0,0,0-.412.408v7.244c0,.342.149.523.412.523s.408-.182.408-.523v-3.212Zm3.816.911a3.049,3.049,0,0,0,6.081,0v-4.9c0-.342-.149-.522-.409-.522s-.41.181-.41.522v4.8a2.222,2.222,0,0,1-4.443,0v-4.8c0-.342-.147-.522-.409-.522s-.409.181-.409.522v4.9Zm8.406-3.917h.021l4.407,6.444c.135.194.229.3.444.3s.388-.114.388-.5v-7.221c0-.342-.148-.522-.41-.522s-.41.181-.41.522v6.14h-.023l-4.35-6.366a.575.575,0,0,0-.479-.3c-.229,0-.41.157-.41.477v7.244c0,.342.149.523.41.523s.411-.182.411-.523v-6.218Zm6.765,6.24c0,.285.135.434.5.434h1.96c1.97,0,3.5-1.506,3.5-4,0-1.892-.977-4.111-3.437-4.111h-2.027c-.365,0-.5.147-.5.432v7.243Zm.82-6.925h1.64c1.938,0,2.618,1.663,2.618,3.213,0,1.9-.694,3.394-2.663,3.394h-1.595v-6.606Zm7.117,5.592h3.942l.535,1.459c.078.2.172.375.455.375a.326.326,0,0,0,.365-.32,1.05,1.05,0,0,0-.082-.339l-2.607-6.994c-.1-.263-.226-.591-.636-.591s-.536.328-.64.591l-2.608,6.994a1.1,1.1,0,0,0-.08.339.326.326,0,0,0,.364.32c.285,0,.356-.172.456-.375l.535-1.459Zm3.667-.752h-3.393l1.685-4.587h.022l1.686,4.587Zm5.776-5.658c-2.393,0-3.531,2.107-3.531,4.233,0,2.168,1.139,4.011,3.62,4.011,1.491,0,2.541-.783,2.541-1.14,0-.284-.14-.41-.342-.41-.3,0-.73.8-2.153.8-1.96,0-2.779-1.582-2.779-3.258,0-1.648.924-3.481,2.63-3.481,1.344,0,1.767.9,2.109.9a.393.393,0,0,0,.364-.432c0-.4-1.095-1.22-2.459-1.22Zm4.337.522c0-.342-.148-.522-.409-.522s-.41.181-.41.522v7.2c0,.342.147.523.41.523s.409-.182.409-.523v-7.2Zm1.207,3.6c0,2.063,1.149,4.123,3.442,4.123s3.438-2.06,3.438-4.123-1.148-4.121-3.437-4.121-3.442,2.062-3.442,4.121Zm3.442,3.37c-1.905,0-2.554-1.842-2.554-3.37s.648-3.369,2.554-3.369,2.55,1.844,2.55,3.369-.648,3.37-2.55,3.37Zm-.937-8.757c-.32.117-.32.265-.32.377,0,.17.127.389.32.389a.792.792,0,0,0,.3-.068l1.573-.6c.318-.115.318-.262.318-.377,0-.17-.126-.388-.318-.388a.783.783,0,0,0-.3.067l-1.572.6Zm6.4,2.769h.022l4.406,6.444c.136.194.229.3.445.3s.388-.114.388-.5v-7.221c0-.342-.148-.522-.41-.522s-.41.181-.41.522v6.14H5776l-4.352-6.366a.573.573,0,0,0-.477-.3c-.229,0-.411.157-.411.477v7.244c0,.342.148.523.411.523s.409-.182.409-.523Z" transform="translate(-5695.67 -6863.735)"/><path class="b" d="M5719.938,6953.381a1.491,1.491,0,0,0,1.544,1.55h4.856a1.392,1.392,0,0,0,1.552-1.437,1.371,1.371,0,0,0-1.552-1.43h-3.3v-2.543h2.927a1.44,1.44,0,1,0,0-2.872h-2.927v-2.466h3.191a1.369,1.369,0,0,0,1.551-1.432,1.39,1.39,0,0,0-1.551-1.436h-4.743a1.494,1.494,0,0,0-1.544,1.55v10.515Zm8.852.021a1.55,1.55,0,1,0,3.094,0v-6.466h.038l5.144,6.444c1.014,1.3,1.322,1.664,2.142,1.664a1.474,1.474,0,0,0,1.551-1.643v-10.56a1.553,1.553,0,1,0-3.1,0v6.468h-.038l-5.144-6.444c-1.03-1.3-1.316-1.664-2.141-1.664a1.471,1.471,0,0,0-1.544,1.641v10.56Zm16.557-4.017h5.773v4.017a1.553,1.553,0,1,0,3.1,0v-10.56a1.553,1.553,0,1,0-3.1,0v3.677h-5.773v-3.677a1.55,1.55,0,1,0-3.094,0v10.56a1.55,1.55,0,1,0,3.094,0v-4.017Zm13.366-6.543a1.55,1.55,0,1,0-3.094,0v6.619c0,3.593,2.449,5.773,5.892,5.773s5.908-2.181,5.908-5.773v-6.619a1.553,1.553,0,1,0-3.1,0v6.619a2.8,2.8,0,0,1-5.6,0v-6.619Zm10.1,10.538a1.491,1.491,0,0,0,1.544,1.55h4.856a1.391,1.391,0,0,0,1.551-1.437,1.371,1.371,0,0,0-1.551-1.43h-3.3v-2.543h2.926a1.44,1.44,0,1,0,0-2.872h-2.926v-2.466h3.191a1.369,1.369,0,0,0,1.55-1.432,1.39,1.39,0,0,0-1.55-1.436h-4.743a1.493,1.493,0,0,0-1.544,1.55v10.515Zm6.4-14.381a1.051,1.051,0,0,0,.711-1.051,1.232,1.232,0,0,0-1.241-1.316,2.216,2.216,0,0,0-.787.173l-2.866,1.243a1.068,1.068,0,0,0-.71,1.051,1.234,1.234,0,0,0,1.245,1.316,2.169,2.169,0,0,0,.781-.168Z" transform="translate(-5695.668 -6869.455)"/><path class="b" d="M5721.971,6878.115c2.755,1.672,6.783,4.14,6.783,4.14a57.579,57.579,0,0,1-3.4-11.9c-.409-2.688,1.437-3.4,2.032-2.395a73.752,73.752,0,0,0,6.238,8.963c-1.095-4.661-.678-11.556-.007-16.052.312-2.09,2.344-1.92,2.574-.679a74.587,74.587,0,0,0,6.376,18.789,45.991,45.991,0,0,1,.171-17.659,1.313,1.313,0,0,1,2.62.181,30.732,30.732,0,0,0,1.9,10.5,16.018,16.018,0,0,0,8.656,9.018c4.286,1.848,7.124.884,9.595.208,4.3-1.863,6.458-3.983,9.769-7.659.627-.7,2.014-.447,1.392.869-2.927,6.2-4.507,19.96-19.693,22.041-13.783,1.891-31.079-10.5-36.768-16.151C5718.675,6878.25,5720.091,6876.976,5721.971,6878.115Z" transform="translate(-5695.534 -6842.228)"/><path class="c" d="M5791.167,6868.026c-1.211.9-2.98,2.22-2.98,2.22a22.239,22.239,0,0,0,.879-5.24c.027-1.158-.9-1.327-1.12-.862a31.477,31.477,0,0,1-2.42,4.207,18.337,18.337,0,0,0-1-6.741c-.279-.855-1.24-.64-1.271-.1a29.285,29.285,0,0,1-1.872,8.342,17.247,17.247,0,0,0-1.186-7.4.639.639,0,0,0-1.239.262,29.208,29.208,0,0,1-.151,4.744,7.215,7.215,0,0,1-3.84,5.274,8.807,8.807,0,0,1-4.524.412,11.168,11.168,0,0,1-4.917-2.373c-.58-.485-1.229-.1-.851.41,1.786,2.4,5.459,7.8,11.314,8.689,6.565,1,13.79-8.26,16.156-11.033C5792.75,6867.849,5791.994,6867.416,5791.167,6868.026Z" transform="translate(-5711.374 -6842.849)"/><path class="b" d="M5763.135,6860.91c.624.794,1.535,1.96,1.535,1.96a14.9,14.9,0,0,1,.354-3.542c.186-.753.813-.7.875-.359a21.145,21.145,0,0,0,.823,3.145,12.286,12.286,0,0,1,1.83-4.181c.331-.5.914-.193.84.159a22.425,22.425,0,0,0-.454,5.391,10.378,10.378,0,0,1,2.263-4.248.428.428,0,0,1,.754.389,13.009,13.009,0,0,0-.8,3.12c-.1.94-.355,2.417,1.236,3.219,1.135.569,2.52-1.087,3.921-1.614.264-.1.646.144.312.407-1.574,1.234-2.041,5.731-5.979,5.276-4.417-.508-7.245-6.563-8.285-8.773C5762.145,6860.519,5762.709,6860.37,5763.135,6860.91Z" transform="translate(-5710.582 -6841.664)"/></svg>