<svg xmlns="http://www.w3.org/2000/svg" width="565.029" height="1274.228" viewBox="0 0 565.029 1274.228"><defs><style>.a{opacity:0.15;}</style></defs><g class="a" transform="translate(-10397.503 -534.491)"><path d="M10513.8,545.461a5.485,5.485,0,1,0-5.488-5.486A5.486,5.486,0,0,0,10513.8,545.461Z"/><path d="M10535.965,545.461a5.485,5.485,0,1,0-5.489-5.486A5.484,5.484,0,0,0,10535.965,545.461Z"/><path d="M10558.125,545.461a5.485,5.485,0,1,0-5.488-5.486A5.486,5.486,0,0,0,10558.125,545.461Z"/><path d="M10580.288,545.461a5.485,5.485,0,1,0-5.488-5.486A5.486,5.486,0,0,0,10580.288,545.461Z"/><path d="M10602.446,545.461a5.485,5.485,0,1,0-5.484-5.486A5.485,5.485,0,0,0,10602.446,545.461Z"/><path d="M10624.609,545.461a5.485,5.485,0,1,0-5.484-5.486A5.487,5.487,0,0,0,10624.609,545.461Z"/><path d="M10646.774,545.461a5.485,5.485,0,1,0-5.487-5.486A5.488,5.488,0,0,0,10646.774,545.461Z"/><path d="M10668.934,545.461a5.485,5.485,0,1,0-5.483-5.486A5.486,5.486,0,0,0,10668.934,545.461Z"/><path d="M10513.8,567.623a5.485,5.485,0,1,0-5.488-5.485A5.486,5.486,0,0,0,10513.8,567.623Z"/><path d="M10535.965,567.623a5.485,5.485,0,1,0-5.489-5.485A5.484,5.484,0,0,0,10535.965,567.623Z"/><path d="M10558.125,567.623a5.485,5.485,0,1,0-5.488-5.485A5.486,5.486,0,0,0,10558.125,567.623Z"/><path d="M10580.288,567.623a5.485,5.485,0,1,0-5.488-5.485A5.486,5.486,0,0,0,10580.288,567.623Z"/><path d="M10602.446,567.623a5.485,5.485,0,1,0-5.484-5.485A5.485,5.485,0,0,0,10602.446,567.623Z"/><path d="M10624.609,567.623a5.485,5.485,0,1,0-5.484-5.485A5.487,5.487,0,0,0,10624.609,567.623Z"/><path d="M10646.774,567.623a5.485,5.485,0,1,0-5.487-5.485A5.488,5.488,0,0,0,10646.774,567.623Z"/><path d="M10668.934,567.623a5.485,5.485,0,1,0-5.483-5.485A5.485,5.485,0,0,0,10668.934,567.623Z"/><path d="M10491.638,589.786a5.486,5.486,0,1,0-5.488-5.485A5.486,5.486,0,0,0,10491.638,589.786Z"/><path d="M10513.8,589.786a5.486,5.486,0,1,0-5.488-5.485A5.486,5.486,0,0,0,10513.8,589.786Z"/><path d="M10535.965,589.786a5.486,5.486,0,1,0-5.489-5.485A5.484,5.484,0,0,0,10535.965,589.786Z"/><path d="M10558.125,589.786a5.486,5.486,0,1,0-5.488-5.485A5.486,5.486,0,0,0,10558.125,589.786Z"/><path d="M10580.288,589.786a5.486,5.486,0,1,0-5.488-5.485A5.486,5.486,0,0,0,10580.288,589.786Z"/><path d="M10602.446,589.786a5.486,5.486,0,1,0-5.484-5.485A5.485,5.485,0,0,0,10602.446,589.786Z"/><path d="M10624.609,589.786a5.486,5.486,0,1,0-5.484-5.485A5.487,5.487,0,0,0,10624.609,589.786Z"/><path d="M10646.774,589.786a5.486,5.486,0,1,0-5.487-5.485A5.488,5.488,0,0,0,10646.774,589.786Z"/><path d="M10668.934,589.786a5.486,5.486,0,1,0-5.483-5.485A5.485,5.485,0,0,0,10668.934,589.786Z"/><path d="M10691.1,589.786a5.486,5.486,0,1,0-5.484-5.485A5.487,5.487,0,0,0,10691.1,589.786Z"/><path d="M10491.638,611.948a5.485,5.485,0,1,0-5.488-5.485A5.486,5.486,0,0,0,10491.638,611.948Z"/><path d="M10513.8,611.948a5.485,5.485,0,1,0-5.488-5.485A5.486,5.486,0,0,0,10513.8,611.948Z"/><path d="M10535.965,611.948a5.485,5.485,0,1,0-5.489-5.485A5.484,5.484,0,0,0,10535.965,611.948Z"/><path d="M10558.125,611.948a5.485,5.485,0,1,0-5.488-5.485A5.486,5.486,0,0,0,10558.125,611.948Z"/><path d="M10580.288,611.948a5.485,5.485,0,1,0-5.488-5.485A5.486,5.486,0,0,0,10580.288,611.948Z"/><path d="M10602.446,611.948a5.485,5.485,0,1,0-5.484-5.485A5.485,5.485,0,0,0,10602.446,611.948Z"/><path d="M10624.609,611.948a5.485,5.485,0,1,0-5.484-5.485A5.487,5.487,0,0,0,10624.609,611.948Z"/><path d="M10646.774,611.948a5.485,5.485,0,1,0-5.487-5.485A5.488,5.488,0,0,0,10646.774,611.948Z"/><path d="M10668.934,611.948a5.485,5.485,0,1,0-5.483-5.485A5.485,5.485,0,0,0,10668.934,611.948Z"/><path d="M10691.1,611.948a5.485,5.485,0,1,0-5.484-5.485A5.487,5.487,0,0,0,10691.1,611.948Z"/><path d="M10713.259,611.948a5.485,5.485,0,1,0-5.483-5.485A5.483,5.483,0,0,0,10713.259,611.948Z"/><path d="M10469.475,634.11a5.484,5.484,0,1,0-5.483-5.484A5.484,5.484,0,0,0,10469.475,634.11Z"/><path d="M10491.638,634.11a5.484,5.484,0,1,0-5.488-5.484A5.485,5.485,0,0,0,10491.638,634.11Z"/><path d="M10513.8,634.11a5.484,5.484,0,1,0-5.488-5.484A5.485,5.485,0,0,0,10513.8,634.11Z"/><path d="M10535.965,634.11a5.484,5.484,0,1,0-5.489-5.484A5.483,5.483,0,0,0,10535.965,634.11Z"/><path d="M10558.125,634.11a5.484,5.484,0,1,0-5.488-5.484A5.485,5.485,0,0,0,10558.125,634.11Z"/><path d="M10580.288,634.11a5.484,5.484,0,1,0-5.488-5.484A5.485,5.485,0,0,0,10580.288,634.11Z"/><path d="M10602.446,634.11a5.484,5.484,0,1,0-5.484-5.484A5.484,5.484,0,0,0,10602.446,634.11Z"/><path d="M10624.609,634.11a5.484,5.484,0,1,0-5.484-5.484A5.486,5.486,0,0,0,10624.609,634.11Z"/><path d="M10646.774,634.11a5.484,5.484,0,1,0-5.487-5.484A5.487,5.487,0,0,0,10646.774,634.11Z"/><path d="M10668.934,634.11a5.484,5.484,0,1,0-5.483-5.484A5.485,5.485,0,0,0,10668.934,634.11Z"/><path d="M10691.1,634.11a5.484,5.484,0,1,0-5.484-5.484A5.486,5.486,0,0,0,10691.1,634.11Z"/><path d="M10713.259,634.11a5.484,5.484,0,1,0-5.483-5.484A5.483,5.483,0,0,0,10713.259,634.11Z"/><path d="M10735.422,634.11a5.484,5.484,0,1,0-5.483-5.484A5.481,5.481,0,0,0,10735.422,634.11Z"/><path d="M10757.584,634.11a5.484,5.484,0,1,0-5.484-5.484A5.483,5.483,0,0,0,10757.584,634.11Z"/><path d="M10447.312,656.273a5.485,5.485,0,1,0-5.483-5.485A5.485,5.485,0,0,0,10447.312,656.273Z"/><path d="M10469.475,656.273a5.485,5.485,0,1,0-5.483-5.485A5.484,5.484,0,0,0,10469.475,656.273Z"/><path d="M10491.638,656.273a5.485,5.485,0,1,0-5.488-5.485A5.485,5.485,0,0,0,10491.638,656.273Z"/><path d="M10513.8,656.273a5.485,5.485,0,1,0-5.488-5.485A5.485,5.485,0,0,0,10513.8,656.273Z"/><path d="M10535.965,656.273a5.485,5.485,0,1,0-5.489-5.485A5.484,5.484,0,0,0,10535.965,656.273Z"/><path d="M10558.125,656.273a5.485,5.485,0,1,0-5.488-5.485A5.485,5.485,0,0,0,10558.125,656.273Z"/><path d="M10580.288,656.273a5.485,5.485,0,1,0-5.488-5.485A5.485,5.485,0,0,0,10580.288,656.273Z"/><path d="M10602.446,656.273a5.485,5.485,0,1,0-5.484-5.485A5.484,5.484,0,0,0,10602.446,656.273Z"/><path d="M10624.609,656.273a5.485,5.485,0,1,0-5.484-5.485A5.486,5.486,0,0,0,10624.609,656.273Z"/><path d="M10646.774,656.273a5.485,5.485,0,1,0-5.487-5.485A5.487,5.487,0,0,0,10646.774,656.273Z"/><path d="M10668.934,656.273a5.485,5.485,0,1,0-5.483-5.485A5.485,5.485,0,0,0,10668.934,656.273Z"/><path d="M10691.1,656.273a5.485,5.485,0,1,0-5.484-5.485A5.486,5.486,0,0,0,10691.1,656.273Z"/><path d="M10713.259,656.273a5.485,5.485,0,1,0-5.483-5.485A5.483,5.483,0,0,0,10713.259,656.273Z"/><path d="M10735.422,656.273a5.485,5.485,0,1,0-5.483-5.485A5.482,5.482,0,0,0,10735.422,656.273Z"/><path d="M10757.584,656.273a5.485,5.485,0,1,0-5.484-5.485A5.483,5.483,0,0,0,10757.584,656.273Z"/><path d="M10779.747,656.273a5.485,5.485,0,1,0-5.484-5.485A5.483,5.483,0,0,0,10779.747,656.273Z"/><path d="M10801.909,656.273a5.485,5.485,0,1,0-5.484-5.485A5.482,5.482,0,0,0,10801.909,656.273Z"/><path d="M10934.885,656.273a5.485,5.485,0,1,0-5.483-5.485A5.485,5.485,0,0,0,10934.885,656.273Z"/><path d="M10447.312,678.435a5.484,5.484,0,1,0-5.483-5.485A5.486,5.486,0,0,0,10447.312,678.435Z"/><path d="M10469.475,678.435a5.484,5.484,0,1,0-5.483-5.485A5.485,5.485,0,0,0,10469.475,678.435Z"/><path d="M10491.638,678.435a5.484,5.484,0,1,0-5.488-5.485A5.486,5.486,0,0,0,10491.638,678.435Z"/><path d="M10513.8,678.435a5.484,5.484,0,1,0-5.488-5.485A5.486,5.486,0,0,0,10513.8,678.435Z"/><path d="M10535.965,678.435a5.484,5.484,0,1,0-5.489-5.485A5.484,5.484,0,0,0,10535.965,678.435Z"/><path d="M10558.125,678.435a5.484,5.484,0,1,0-5.488-5.485A5.486,5.486,0,0,0,10558.125,678.435Z"/><path d="M10580.288,678.435a5.484,5.484,0,1,0-5.488-5.485A5.486,5.486,0,0,0,10580.288,678.435Z"/><path d="M10602.446,678.435a5.484,5.484,0,1,0-5.484-5.485A5.485,5.485,0,0,0,10602.446,678.435Z"/><path d="M10624.609,678.435a5.484,5.484,0,1,0-5.484-5.485A5.487,5.487,0,0,0,10624.609,678.435Z"/><path d="M10646.774,678.435a5.484,5.484,0,1,0-5.487-5.485A5.488,5.488,0,0,0,10646.774,678.435Z"/><path d="M10668.934,678.435a5.484,5.484,0,1,0-5.483-5.485A5.485,5.485,0,0,0,10668.934,678.435Z"/><path d="M10691.1,678.435a5.484,5.484,0,1,0-5.484-5.485A5.487,5.487,0,0,0,10691.1,678.435Z"/><path d="M10713.259,678.435a5.484,5.484,0,1,0-5.483-5.485A5.483,5.483,0,0,0,10713.259,678.435Z"/><path d="M10735.422,678.435a5.484,5.484,0,1,0-5.483-5.485A5.482,5.482,0,0,0,10735.422,678.435Z"/><path d="M10757.584,678.435a5.484,5.484,0,1,0-5.484-5.485A5.484,5.484,0,0,0,10757.584,678.435Z"/><path d="M10779.747,678.435a5.484,5.484,0,1,0-5.484-5.485A5.483,5.483,0,0,0,10779.747,678.435Z"/><path d="M10801.909,678.435a5.484,5.484,0,1,0-5.484-5.485A5.483,5.483,0,0,0,10801.909,678.435Z"/><path d="M10824.072,678.435a5.484,5.484,0,1,0-5.484-5.485A5.483,5.483,0,0,0,10824.072,678.435Z"/><path d="M10912.722,678.435a5.484,5.484,0,1,0-5.483-5.485A5.486,5.486,0,0,0,10912.722,678.435Z"/><path d="M10934.885,678.435a5.484,5.484,0,1,0-5.483-5.485A5.486,5.486,0,0,0,10934.885,678.435Z"/><path d="M10957.049,678.435a5.484,5.484,0,1,0-5.485-5.485A5.486,5.486,0,0,0,10957.049,678.435Z"/><path d="M10447.312,700.6a5.485,5.485,0,1,0-5.483-5.485A5.486,5.486,0,0,0,10447.312,700.6Z"/><path d="M10469.475,700.6a5.485,5.485,0,1,0-5.483-5.485A5.485,5.485,0,0,0,10469.475,700.6Z"/><path d="M10491.638,700.6a5.485,5.485,0,1,0-5.488-5.485A5.486,5.486,0,0,0,10491.638,700.6Z"/><path d="M10513.8,700.6a5.485,5.485,0,1,0-5.488-5.485A5.486,5.486,0,0,0,10513.8,700.6Z"/><path d="M10535.965,700.6a5.485,5.485,0,1,0-5.489-5.485A5.484,5.484,0,0,0,10535.965,700.6Z"/><path d="M10558.125,700.6a5.485,5.485,0,1,0-5.488-5.485A5.486,5.486,0,0,0,10558.125,700.6Z"/><path d="M10580.288,700.6a5.485,5.485,0,1,0-5.488-5.485A5.486,5.486,0,0,0,10580.288,700.6Z"/><path d="M10602.446,700.6a5.485,5.485,0,1,0-5.484-5.485A5.485,5.485,0,0,0,10602.446,700.6Z"/><path d="M10624.609,700.6a5.485,5.485,0,1,0-5.484-5.485A5.487,5.487,0,0,0,10624.609,700.6Z"/><path d="M10646.774,700.6a5.485,5.485,0,1,0-5.487-5.485A5.488,5.488,0,0,0,10646.774,700.6Z"/><path d="M10668.934,700.6a5.485,5.485,0,1,0-5.483-5.485A5.485,5.485,0,0,0,10668.934,700.6Z"/><path d="M10691.1,700.6a5.485,5.485,0,1,0-5.484-5.485A5.487,5.487,0,0,0,10691.1,700.6Z"/><path d="M10713.259,700.6a5.485,5.485,0,1,0-5.483-5.485A5.483,5.483,0,0,0,10713.259,700.6Z"/><path d="M10735.422,700.6a5.485,5.485,0,1,0-5.483-5.485A5.482,5.482,0,0,0,10735.422,700.6Z"/><path d="M10757.584,700.6a5.485,5.485,0,1,0-5.484-5.485A5.484,5.484,0,0,0,10757.584,700.6Z"/><path d="M10779.747,700.6a5.485,5.485,0,1,0-5.484-5.485A5.483,5.483,0,0,0,10779.747,700.6Z"/><path d="M10801.909,700.6a5.485,5.485,0,1,0-5.484-5.485A5.483,5.483,0,0,0,10801.909,700.6Z"/><path d="M10912.722,700.6a5.485,5.485,0,1,0-5.483-5.485A5.486,5.486,0,0,0,10912.722,700.6Z"/><path d="M10934.885,700.6a5.485,5.485,0,1,0-5.483-5.485A5.486,5.486,0,0,0,10934.885,700.6Z"/><path d="M10957.049,700.6a5.485,5.485,0,1,0-5.485-5.485A5.486,5.486,0,0,0,10957.049,700.6Z"/><path d="M10447.312,722.76a5.484,5.484,0,1,0-5.483-5.485A5.486,5.486,0,0,0,10447.312,722.76Z"/><path d="M10469.475,722.76a5.484,5.484,0,1,0-5.483-5.485A5.485,5.485,0,0,0,10469.475,722.76Z"/><path d="M10491.638,722.76a5.484,5.484,0,1,0-5.488-5.485A5.486,5.486,0,0,0,10491.638,722.76Z"/><path d="M10513.8,722.76a5.484,5.484,0,1,0-5.488-5.485A5.486,5.486,0,0,0,10513.8,722.76Z"/><path d="M10535.965,722.76a5.484,5.484,0,1,0-5.489-5.485A5.484,5.484,0,0,0,10535.965,722.76Z"/><path d="M10558.125,722.76a5.484,5.484,0,1,0-5.488-5.485A5.486,5.486,0,0,0,10558.125,722.76Z"/><path d="M10580.288,722.76a5.484,5.484,0,1,0-5.488-5.485A5.486,5.486,0,0,0,10580.288,722.76Z"/><path d="M10602.446,722.76a5.484,5.484,0,1,0-5.484-5.485A5.485,5.485,0,0,0,10602.446,722.76Z"/><path d="M10624.609,722.76a5.484,5.484,0,1,0-5.484-5.485A5.487,5.487,0,0,0,10624.609,722.76Z"/><path d="M10646.774,722.76a5.484,5.484,0,1,0-5.487-5.485A5.488,5.488,0,0,0,10646.774,722.76Z"/><path d="M10668.934,722.76a5.484,5.484,0,1,0-5.483-5.485A5.485,5.485,0,0,0,10668.934,722.76Z"/><path d="M10691.1,722.76a5.484,5.484,0,1,0-5.484-5.485A5.487,5.487,0,0,0,10691.1,722.76Z"/><path d="M10713.259,722.76a5.484,5.484,0,1,0-5.483-5.485A5.483,5.483,0,0,0,10713.259,722.76Z"/><path d="M10735.422,722.76a5.484,5.484,0,1,0-5.483-5.485A5.482,5.482,0,0,0,10735.422,722.76Z"/><path d="M10757.584,722.76a5.484,5.484,0,1,0-5.484-5.485A5.484,5.484,0,0,0,10757.584,722.76Z"/><path d="M10779.747,722.76a5.484,5.484,0,1,0-5.484-5.485A5.483,5.483,0,0,0,10779.747,722.76Z"/><path d="M10801.909,722.76a5.484,5.484,0,1,0-5.484-5.485A5.483,5.483,0,0,0,10801.909,722.76Z"/><path d="M10824.072,722.76a5.484,5.484,0,1,0-5.484-5.485A5.483,5.483,0,0,0,10824.072,722.76Z"/><path d="M10890.56,722.76a5.484,5.484,0,1,0-5.484-5.485A5.483,5.483,0,0,0,10890.56,722.76Z"/><path d="M10912.722,722.76a5.484,5.484,0,1,0-5.483-5.485A5.486,5.486,0,0,0,10912.722,722.76Z"/><path d="M10934.885,722.76a5.484,5.484,0,1,0-5.483-5.485A5.486,5.486,0,0,0,10934.885,722.76Z"/><path d="M10957.049,722.76a5.484,5.484,0,1,0-5.485-5.485A5.486,5.486,0,0,0,10957.049,722.76Z"/><path d="M10447.312,744.923a5.485,5.485,0,1,0-5.483-5.485A5.486,5.486,0,0,0,10447.312,744.923Z"/><path d="M10469.475,744.923a5.485,5.485,0,1,0-5.483-5.485A5.485,5.485,0,0,0,10469.475,744.923Z"/><path d="M10491.638,744.923a5.485,5.485,0,1,0-5.488-5.485A5.486,5.486,0,0,0,10491.638,744.923Z"/><path d="M10513.8,744.923a5.485,5.485,0,1,0-5.488-5.485A5.486,5.486,0,0,0,10513.8,744.923Z"/><path d="M10535.965,744.923a5.485,5.485,0,1,0-5.489-5.485A5.484,5.484,0,0,0,10535.965,744.923Z"/><path d="M10558.125,744.923a5.485,5.485,0,1,0-5.488-5.485A5.486,5.486,0,0,0,10558.125,744.923Z"/><path d="M10580.288,744.923a5.485,5.485,0,1,0-5.488-5.485A5.486,5.486,0,0,0,10580.288,744.923Z"/><path d="M10602.446,744.923a5.485,5.485,0,1,0-5.484-5.485A5.485,5.485,0,0,0,10602.446,744.923Z"/><path d="M10624.609,744.923a5.485,5.485,0,1,0-5.484-5.485A5.487,5.487,0,0,0,10624.609,744.923Z"/><path d="M10646.774,744.923a5.485,5.485,0,1,0-5.487-5.485A5.488,5.488,0,0,0,10646.774,744.923Z"/><path d="M10668.934,744.923a5.485,5.485,0,1,0-5.483-5.485A5.485,5.485,0,0,0,10668.934,744.923Z"/><path d="M10691.1,744.923a5.485,5.485,0,1,0-5.484-5.485A5.487,5.487,0,0,0,10691.1,744.923Z"/><circle cx="5.485" cy="5.485" r="5.485" transform="translate(10707.774 733.953)"/><circle cx="5.485" cy="5.485" r="5.485" transform="matrix(0.003, -1, 1, 0.003, 10729.919, 744.906)"/><path d="M10757.584,744.923a5.485,5.485,0,1,0-5.484-5.485A5.484,5.484,0,0,0,10757.584,744.923Z"/><circle cx="5.485" cy="5.485" r="5.485" transform="translate(10774.262 733.953)"/><path d="M10801.909,744.923a5.485,5.485,0,1,0-5.484-5.485A5.483,5.483,0,0,0,10801.909,744.923Z"/><path d="M10824.072,744.923a5.485,5.485,0,1,0-5.484-5.485A5.483,5.483,0,0,0,10824.072,744.923Z"/><path d="M10846.235,744.923a5.485,5.485,0,1,0-5.483-5.485A5.483,5.483,0,0,0,10846.235,744.923Z"/><path d="M10868.4,744.923a5.485,5.485,0,1,0-5.484-5.485A5.483,5.483,0,0,0,10868.4,744.923Z"/><path d="M10890.56,744.923a5.485,5.485,0,1,0-5.484-5.485A5.483,5.483,0,0,0,10890.56,744.923Z"/><circle cx="5.485" cy="5.485" r="5.485" transform="translate(10907.237 733.953)"/><path d="M10934.885,744.923a5.485,5.485,0,1,0-5.483-5.485A5.486,5.486,0,0,0,10934.885,744.923Z"/><path d="M10402.987,767.085a5.485,5.485,0,1,0-5.484-5.485A5.486,5.486,0,0,0,10402.987,767.085Z"/><path d="M10425.15,767.085a5.485,5.485,0,1,0-5.482-5.485A5.485,5.485,0,0,0,10425.15,767.085Z"/><path d="M10447.312,767.085a5.485,5.485,0,1,0-5.483-5.485A5.485,5.485,0,0,0,10447.312,767.085Z"/><path d="M10469.475,767.085a5.485,5.485,0,1,0-5.483-5.485A5.484,5.484,0,0,0,10469.475,767.085Z"/><path d="M10491.638,767.085a5.485,5.485,0,1,0-5.488-5.485A5.485,5.485,0,0,0,10491.638,767.085Z"/><path d="M10513.8,767.085a5.485,5.485,0,1,0-5.488-5.485A5.485,5.485,0,0,0,10513.8,767.085Z"/><path d="M10535.965,767.085a5.485,5.485,0,1,0-5.489-5.485A5.484,5.484,0,0,0,10535.965,767.085Z"/><path d="M10558.125,767.085a5.485,5.485,0,1,0-5.488-5.485A5.485,5.485,0,0,0,10558.125,767.085Z"/><path d="M10580.288,767.085a5.485,5.485,0,1,0-5.488-5.485A5.485,5.485,0,0,0,10580.288,767.085Z"/><path d="M10602.446,767.085a5.485,5.485,0,1,0-5.484-5.485A5.484,5.484,0,0,0,10602.446,767.085Z"/><path d="M10624.609,767.085a5.485,5.485,0,1,0-5.484-5.485A5.486,5.486,0,0,0,10624.609,767.085Z"/><path d="M10646.774,767.085a5.485,5.485,0,1,0-5.487-5.485A5.487,5.487,0,0,0,10646.774,767.085Z"/><path d="M10668.934,767.085a5.485,5.485,0,1,0-5.483-5.485A5.485,5.485,0,0,0,10668.934,767.085Z"/><path d="M10691.1,767.085a5.485,5.485,0,1,0-5.484-5.485A5.486,5.486,0,0,0,10691.1,767.085Z"/><circle cx="5.485" cy="5.485" r="5.485" transform="translate(10707.774 756.116)"/><circle cx="5.485" cy="5.485" r="5.485" transform="matrix(0.003, -1, 1, 0.003, 10729.919, 767.068)"/><path d="M10757.584,767.085a5.485,5.485,0,1,0-5.484-5.485A5.483,5.483,0,0,0,10757.584,767.085Z"/><circle cx="5.485" cy="5.485" r="5.485" transform="translate(10774.262 756.116)"/><path d="M10801.909,767.085a5.485,5.485,0,1,0-5.484-5.485A5.482,5.482,0,0,0,10801.909,767.085Z"/><path d="M10824.072,767.085a5.485,5.485,0,1,0-5.484-5.485A5.483,5.483,0,0,0,10824.072,767.085Z"/><path d="M10846.235,767.085a5.485,5.485,0,1,0-5.483-5.485A5.483,5.483,0,0,0,10846.235,767.085Z"/><path d="M10868.4,767.085a5.485,5.485,0,1,0-5.484-5.485A5.483,5.483,0,0,0,10868.4,767.085Z"/><path d="M10890.56,767.085a5.485,5.485,0,1,0-5.484-5.485A5.483,5.483,0,0,0,10890.56,767.085Z"/><path d="M10402.987,789.247a5.485,5.485,0,1,0-5.484-5.484A5.486,5.486,0,0,0,10402.987,789.247Z"/><path d="M10425.15,789.247a5.485,5.485,0,1,0-5.482-5.484A5.485,5.485,0,0,0,10425.15,789.247Z"/><path d="M10447.312,789.247a5.485,5.485,0,1,0-5.483-5.484A5.485,5.485,0,0,0,10447.312,789.247Z"/><path d="M10469.475,789.247a5.485,5.485,0,1,0-5.483-5.484A5.484,5.484,0,0,0,10469.475,789.247Z"/><path d="M10491.638,789.247a5.485,5.485,0,1,0-5.488-5.484A5.485,5.485,0,0,0,10491.638,789.247Z"/><path d="M10513.8,789.247a5.485,5.485,0,1,0-5.488-5.484A5.485,5.485,0,0,0,10513.8,789.247Z"/><path d="M10535.965,789.247a5.485,5.485,0,1,0-5.489-5.484A5.483,5.483,0,0,0,10535.965,789.247Z"/><path d="M10558.125,789.247a5.485,5.485,0,1,0-5.488-5.484A5.485,5.485,0,0,0,10558.125,789.247Z"/><path d="M10580.288,789.247a5.485,5.485,0,1,0-5.488-5.484A5.485,5.485,0,0,0,10580.288,789.247Z"/><path d="M10602.446,789.247a5.485,5.485,0,1,0-5.484-5.484A5.484,5.484,0,0,0,10602.446,789.247Z"/><path d="M10624.609,789.247a5.485,5.485,0,1,0-5.484-5.484A5.486,5.486,0,0,0,10624.609,789.247Z"/><path d="M10646.774,789.247a5.485,5.485,0,1,0-5.487-5.484A5.487,5.487,0,0,0,10646.774,789.247Z"/><path d="M10668.934,789.247a5.485,5.485,0,1,0-5.483-5.484A5.485,5.485,0,0,0,10668.934,789.247Z"/><path d="M10691.1,789.247a5.485,5.485,0,1,0-5.484-5.484A5.486,5.486,0,0,0,10691.1,789.247Z"/><path d="M10713.259,789.247a5.485,5.485,0,1,0-5.483-5.484A5.483,5.483,0,0,0,10713.259,789.247Z"/><path d="M10735.422,789.247a5.485,5.485,0,1,0-5.483-5.484A5.481,5.481,0,0,0,10735.422,789.247Z"/><path d="M10757.584,789.247a5.485,5.485,0,1,0-5.484-5.484A5.483,5.483,0,0,0,10757.584,789.247Z"/><path d="M10779.747,789.247a5.485,5.485,0,1,0-5.484-5.484A5.483,5.483,0,0,0,10779.747,789.247Z"/><path d="M10801.909,789.247a5.485,5.485,0,1,0-5.484-5.484A5.482,5.482,0,0,0,10801.909,789.247Z"/><path d="M10824.072,789.247a5.485,5.485,0,1,0-5.484-5.484A5.482,5.482,0,0,0,10824.072,789.247Z"/><path d="M10846.235,789.247a5.485,5.485,0,1,0-5.483-5.484A5.482,5.482,0,0,0,10846.235,789.247Z"/><path d="M10868.4,789.247a5.485,5.485,0,1,0-5.484-5.484A5.482,5.482,0,0,0,10868.4,789.247Z"/><path d="M10402.987,811.41a5.485,5.485,0,1,0-5.484-5.485A5.486,5.486,0,0,0,10402.987,811.41Z"/><path d="M10425.15,811.41a5.485,5.485,0,1,0-5.482-5.485A5.485,5.485,0,0,0,10425.15,811.41Z"/><path d="M10447.312,811.41a5.485,5.485,0,1,0-5.483-5.485A5.485,5.485,0,0,0,10447.312,811.41Z"/><path d="M10469.475,811.41a5.485,5.485,0,1,0-5.483-5.485A5.484,5.484,0,0,0,10469.475,811.41Z"/><path d="M10491.638,811.41a5.485,5.485,0,1,0-5.488-5.485A5.485,5.485,0,0,0,10491.638,811.41Z"/><path d="M10513.8,811.41a5.485,5.485,0,1,0-5.488-5.485A5.485,5.485,0,0,0,10513.8,811.41Z"/><path d="M10535.965,811.41a5.485,5.485,0,1,0-5.489-5.485A5.484,5.484,0,0,0,10535.965,811.41Z"/><path d="M10558.125,811.41a5.485,5.485,0,1,0-5.488-5.485A5.485,5.485,0,0,0,10558.125,811.41Z"/><path d="M10580.288,811.41a5.485,5.485,0,1,0-5.488-5.485A5.485,5.485,0,0,0,10580.288,811.41Z"/><path d="M10602.446,811.41a5.485,5.485,0,1,0-5.484-5.485A5.484,5.484,0,0,0,10602.446,811.41Z"/><path d="M10624.609,811.41a5.485,5.485,0,1,0-5.484-5.485A5.486,5.486,0,0,0,10624.609,811.41Z"/><path d="M10646.774,811.41a5.485,5.485,0,1,0-5.487-5.485A5.487,5.487,0,0,0,10646.774,811.41Z"/><path d="M10668.934,811.41a5.485,5.485,0,1,0-5.483-5.485A5.485,5.485,0,0,0,10668.934,811.41Z"/><path d="M10691.1,811.41a5.485,5.485,0,1,0-5.484-5.485A5.486,5.486,0,0,0,10691.1,811.41Z"/><path d="M10713.259,811.41a5.485,5.485,0,1,0-5.483-5.485A5.483,5.483,0,0,0,10713.259,811.41Z"/><path d="M10735.422,811.41a5.485,5.485,0,1,0-5.483-5.485A5.481,5.481,0,0,0,10735.422,811.41Z"/><path d="M10757.584,811.41a5.485,5.485,0,1,0-5.484-5.485A5.483,5.483,0,0,0,10757.584,811.41Z"/><path d="M10779.747,811.41a5.485,5.485,0,1,0-5.484-5.485A5.483,5.483,0,0,0,10779.747,811.41Z"/><path d="M10801.909,811.41a5.485,5.485,0,1,0-5.484-5.485A5.482,5.482,0,0,0,10801.909,811.41Z"/><path d="M10824.072,811.41a5.485,5.485,0,1,0-5.484-5.485A5.483,5.483,0,0,0,10824.072,811.41Z"/><path d="M10846.235,811.41a5.485,5.485,0,1,0-5.483-5.485A5.483,5.483,0,0,0,10846.235,811.41Z"/><path d="M10402.987,833.572a5.484,5.484,0,1,0-5.484-5.484A5.487,5.487,0,0,0,10402.987,833.572Z"/><path d="M10425.15,833.572a5.484,5.484,0,1,0-5.482-5.484A5.485,5.485,0,0,0,10425.15,833.572Z"/><path d="M10447.312,833.572a5.484,5.484,0,1,0-5.483-5.484A5.486,5.486,0,0,0,10447.312,833.572Z"/><path d="M10469.475,833.572a5.484,5.484,0,1,0-5.483-5.484A5.484,5.484,0,0,0,10469.475,833.572Z"/><path d="M10491.638,833.572a5.484,5.484,0,1,0-5.488-5.484A5.486,5.486,0,0,0,10491.638,833.572Z"/><path d="M10513.8,833.572a5.484,5.484,0,1,0-5.488-5.484A5.486,5.486,0,0,0,10513.8,833.572Z"/><path d="M10535.965,833.572a5.484,5.484,0,1,0-5.489-5.484A5.484,5.484,0,0,0,10535.965,833.572Z"/><path d="M10558.125,833.572a5.484,5.484,0,1,0-5.488-5.484A5.486,5.486,0,0,0,10558.125,833.572Z"/><path d="M10580.288,833.572a5.484,5.484,0,1,0-5.488-5.484A5.486,5.486,0,0,0,10580.288,833.572Z"/><path d="M10602.446,833.572a5.484,5.484,0,1,0-5.484-5.484A5.485,5.485,0,0,0,10602.446,833.572Z"/><path d="M10624.609,833.572a5.484,5.484,0,1,0-5.484-5.484A5.486,5.486,0,0,0,10624.609,833.572Z"/><path d="M10646.774,833.572a5.484,5.484,0,1,0-5.487-5.484A5.488,5.488,0,0,0,10646.774,833.572Z"/><path d="M10668.934,833.572a5.484,5.484,0,1,0-5.483-5.484A5.485,5.485,0,0,0,10668.934,833.572Z"/><path d="M10691.1,833.572a5.484,5.484,0,1,0-5.484-5.484A5.487,5.487,0,0,0,10691.1,833.572Z"/><path d="M10713.259,833.572a5.484,5.484,0,1,0-5.483-5.484A5.483,5.483,0,0,0,10713.259,833.572Z"/><path d="M10735.422,833.572a5.484,5.484,0,1,0-5.483-5.484A5.482,5.482,0,0,0,10735.422,833.572Z"/><path d="M10757.584,833.572a5.484,5.484,0,1,0-5.484-5.484A5.483,5.483,0,0,0,10757.584,833.572Z"/><path d="M10779.747,833.572a5.484,5.484,0,1,0-5.484-5.484A5.483,5.483,0,0,0,10779.747,833.572Z"/><path d="M10801.909,833.572a5.484,5.484,0,1,0-5.484-5.484A5.483,5.483,0,0,0,10801.909,833.572Z"/><path d="M10824.072,833.572a5.484,5.484,0,1,0-5.484-5.484A5.483,5.483,0,0,0,10824.072,833.572Z"/><path d="M10846.235,833.572a5.484,5.484,0,1,0-5.483-5.484A5.483,5.483,0,0,0,10846.235,833.572Z"/><path d="M10402.987,855.735a5.485,5.485,0,1,0-5.484-5.485A5.487,5.487,0,0,0,10402.987,855.735Z"/><path d="M10425.15,855.735a5.485,5.485,0,1,0-5.482-5.485A5.486,5.486,0,0,0,10425.15,855.735Z"/><path d="M10447.312,855.735a5.485,5.485,0,1,0-5.483-5.485A5.486,5.486,0,0,0,10447.312,855.735Z"/><path d="M10469.475,855.735a5.485,5.485,0,1,0-5.483-5.485A5.485,5.485,0,0,0,10469.475,855.735Z"/><path d="M10491.638,855.735a5.485,5.485,0,1,0-5.488-5.485A5.486,5.486,0,0,0,10491.638,855.735Z"/><path d="M10513.8,855.735a5.485,5.485,0,1,0-5.488-5.485A5.486,5.486,0,0,0,10513.8,855.735Z"/><path d="M10535.965,855.735a5.485,5.485,0,1,0-5.489-5.485A5.484,5.484,0,0,0,10535.965,855.735Z"/><path d="M10558.125,855.735a5.485,5.485,0,1,0-5.488-5.485A5.486,5.486,0,0,0,10558.125,855.735Z"/><path d="M10580.288,855.735a5.485,5.485,0,1,0-5.488-5.485A5.486,5.486,0,0,0,10580.288,855.735Z"/><path d="M10602.446,855.735a5.485,5.485,0,1,0-5.484-5.485A5.485,5.485,0,0,0,10602.446,855.735Z"/><path d="M10624.609,855.735a5.485,5.485,0,1,0-5.484-5.485A5.487,5.487,0,0,0,10624.609,855.735Z"/><path d="M10646.774,855.735a5.485,5.485,0,1,0-5.487-5.485A5.488,5.488,0,0,0,10646.774,855.735Z"/><path d="M10668.934,855.735a5.485,5.485,0,1,0-5.483-5.485A5.485,5.485,0,0,0,10668.934,855.735Z"/><path d="M10691.1,855.735a5.485,5.485,0,1,0-5.484-5.485A5.487,5.487,0,0,0,10691.1,855.735Z"/><path d="M10713.259,855.735a5.485,5.485,0,1,0-5.483-5.485A5.483,5.483,0,0,0,10713.259,855.735Z"/><path d="M10735.422,855.735a5.485,5.485,0,1,0-5.483-5.485A5.482,5.482,0,0,0,10735.422,855.735Z"/><path d="M10757.584,855.735a5.485,5.485,0,1,0-5.484-5.485A5.484,5.484,0,0,0,10757.584,855.735Z"/><path d="M10779.747,855.735a5.485,5.485,0,1,0-5.484-5.485A5.483,5.483,0,0,0,10779.747,855.735Z"/><path d="M10801.909,855.735a5.485,5.485,0,1,0-5.484-5.485A5.483,5.483,0,0,0,10801.909,855.735Z"/><path d="M10824.072,855.735a5.485,5.485,0,1,0-5.484-5.485A5.483,5.483,0,0,0,10824.072,855.735Z"/><path d="M10402.987,877.9a5.484,5.484,0,1,0-5.484-5.485A5.487,5.487,0,0,0,10402.987,877.9Z"/><path d="M10425.15,877.9a5.484,5.484,0,1,0-5.482-5.485A5.486,5.486,0,0,0,10425.15,877.9Z"/><path d="M10447.312,877.9a5.484,5.484,0,1,0-5.483-5.485A5.486,5.486,0,0,0,10447.312,877.9Z"/><path d="M10469.475,877.9a5.484,5.484,0,1,0-5.483-5.485A5.485,5.485,0,0,0,10469.475,877.9Z"/><path d="M10491.638,877.9a5.484,5.484,0,1,0-5.488-5.485A5.486,5.486,0,0,0,10491.638,877.9Z"/><path d="M10513.8,877.9a5.484,5.484,0,1,0-5.488-5.485A5.486,5.486,0,0,0,10513.8,877.9Z"/><path d="M10535.965,877.9a5.484,5.484,0,1,0-5.489-5.485A5.484,5.484,0,0,0,10535.965,877.9Z"/><path d="M10558.125,877.9a5.484,5.484,0,1,0-5.488-5.485A5.486,5.486,0,0,0,10558.125,877.9Z"/><path d="M10580.288,877.9a5.484,5.484,0,1,0-5.488-5.485A5.486,5.486,0,0,0,10580.288,877.9Z"/><path d="M10602.446,877.9a5.484,5.484,0,1,0-5.484-5.485A5.485,5.485,0,0,0,10602.446,877.9Z"/><path d="M10624.609,877.9a5.484,5.484,0,1,0-5.484-5.485A5.487,5.487,0,0,0,10624.609,877.9Z"/><path d="M10646.774,877.9a5.484,5.484,0,1,0-5.487-5.485A5.488,5.488,0,0,0,10646.774,877.9Z"/><path d="M10668.934,877.9a5.484,5.484,0,1,0-5.483-5.485A5.485,5.485,0,0,0,10668.934,877.9Z"/><path d="M10691.1,877.9a5.484,5.484,0,1,0-5.484-5.485A5.487,5.487,0,0,0,10691.1,877.9Z"/><path d="M10713.259,877.9a5.484,5.484,0,1,0-5.483-5.485A5.483,5.483,0,0,0,10713.259,877.9Z"/><path d="M10735.422,877.9a5.484,5.484,0,1,0-5.483-5.485A5.482,5.482,0,0,0,10735.422,877.9Z"/><path d="M10757.584,877.9a5.484,5.484,0,1,0-5.484-5.485A5.484,5.484,0,0,0,10757.584,877.9Z"/><path d="M10779.747,877.9a5.484,5.484,0,1,0-5.484-5.485A5.483,5.483,0,0,0,10779.747,877.9Z"/><path d="M10801.909,877.9a5.484,5.484,0,1,0-5.484-5.485A5.483,5.483,0,0,0,10801.909,877.9Z"/><path d="M10824.072,877.9a5.484,5.484,0,1,0-5.484-5.485A5.483,5.483,0,0,0,10824.072,877.9Z"/><path d="M10402.987,900.06a5.486,5.486,0,1,0-5.484-5.485A5.487,5.487,0,0,0,10402.987,900.06Z"/><path d="M10425.15,900.06a5.486,5.486,0,1,0-5.482-5.485A5.486,5.486,0,0,0,10425.15,900.06Z"/><path d="M10447.312,900.06a5.486,5.486,0,1,0-5.483-5.485A5.486,5.486,0,0,0,10447.312,900.06Z"/><path d="M10469.475,900.06a5.486,5.486,0,1,0-5.483-5.485A5.485,5.485,0,0,0,10469.475,900.06Z"/><path d="M10491.638,900.06a5.486,5.486,0,1,0-5.488-5.485A5.486,5.486,0,0,0,10491.638,900.06Z"/><path d="M10513.8,900.06a5.486,5.486,0,1,0-5.488-5.485A5.486,5.486,0,0,0,10513.8,900.06Z"/><path d="M10535.965,900.06a5.486,5.486,0,1,0-5.489-5.485A5.484,5.484,0,0,0,10535.965,900.06Z"/><path d="M10558.125,900.06a5.486,5.486,0,1,0-5.488-5.485A5.486,5.486,0,0,0,10558.125,900.06Z"/><path d="M10580.288,900.06a5.486,5.486,0,1,0-5.488-5.485A5.486,5.486,0,0,0,10580.288,900.06Z"/><path d="M10602.446,900.06a5.486,5.486,0,1,0-5.484-5.485A5.485,5.485,0,0,0,10602.446,900.06Z"/><path d="M10624.609,900.06a5.486,5.486,0,1,0-5.484-5.485A5.487,5.487,0,0,0,10624.609,900.06Z"/><path d="M10646.774,900.06a5.486,5.486,0,1,0-5.487-5.485A5.488,5.488,0,0,0,10646.774,900.06Z"/><path d="M10668.934,900.06a5.486,5.486,0,1,0-5.483-5.485A5.485,5.485,0,0,0,10668.934,900.06Z"/><path d="M10691.1,900.06a5.486,5.486,0,1,0-5.484-5.485A5.487,5.487,0,0,0,10691.1,900.06Z"/><circle cx="5.485" cy="5.485" r="5.485" transform="translate(10707.774 889.09)"/><circle cx="5.485" cy="5.485" r="5.485" transform="matrix(0.003, -1, 1, 0.003, 10729.919, 900.042)"/><path d="M10757.584,900.06a5.486,5.486,0,1,0-5.484-5.485A5.484,5.484,0,0,0,10757.584,900.06Z"/><circle cx="5.485" cy="5.485" r="5.485" transform="translate(10774.262 889.09)"/><path d="M10801.909,900.06a5.486,5.486,0,1,0-5.484-5.485A5.483,5.483,0,0,0,10801.909,900.06Z"/><path d="M10824.072,900.06a5.486,5.486,0,1,0-5.484-5.485A5.483,5.483,0,0,0,10824.072,900.06Z"/><path d="M10402.987,922.223a5.486,5.486,0,1,0-5.484-5.486A5.488,5.488,0,0,0,10402.987,922.223Z"/><path d="M10425.15,922.223a5.486,5.486,0,1,0-5.482-5.486A5.487,5.487,0,0,0,10425.15,922.223Z"/><path d="M10447.312,922.223a5.486,5.486,0,1,0-5.483-5.486A5.487,5.487,0,0,0,10447.312,922.223Z"/><path d="M10469.475,922.223a5.486,5.486,0,1,0-5.483-5.486A5.486,5.486,0,0,0,10469.475,922.223Z"/><path d="M10491.638,922.223a5.486,5.486,0,1,0-5.488-5.486A5.487,5.487,0,0,0,10491.638,922.223Z"/><path d="M10513.8,922.223a5.486,5.486,0,1,0-5.488-5.486A5.487,5.487,0,0,0,10513.8,922.223Z"/><path d="M10535.965,922.223a5.486,5.486,0,1,0-5.489-5.486A5.485,5.485,0,0,0,10535.965,922.223Z"/><path d="M10558.125,922.223a5.486,5.486,0,1,0-5.488-5.486A5.487,5.487,0,0,0,10558.125,922.223Z"/><path d="M10580.288,922.223a5.486,5.486,0,1,0-5.488-5.486A5.487,5.487,0,0,0,10580.288,922.223Z"/><path d="M10602.446,922.223a5.486,5.486,0,1,0-5.484-5.486A5.486,5.486,0,0,0,10602.446,922.223Z"/><path d="M10624.609,922.223a5.486,5.486,0,1,0-5.484-5.486A5.487,5.487,0,0,0,10624.609,922.223Z"/><path d="M10646.774,922.223a5.486,5.486,0,1,0-5.487-5.486A5.489,5.489,0,0,0,10646.774,922.223Z"/><path d="M10668.934,922.223a5.486,5.486,0,1,0-5.483-5.486A5.486,5.486,0,0,0,10668.934,922.223Z"/><path d="M10691.1,922.223a5.486,5.486,0,1,0-5.484-5.486A5.488,5.488,0,0,0,10691.1,922.223Z"/><path d="M10713.259,922.223a5.486,5.486,0,1,0-5.483-5.486A5.484,5.484,0,0,0,10713.259,922.223Z"/><path d="M10735.422,922.223a5.486,5.486,0,1,0-5.483-5.486A5.483,5.483,0,0,0,10735.422,922.223Z"/><path d="M10757.584,922.223a5.486,5.486,0,1,0-5.484-5.486A5.484,5.484,0,0,0,10757.584,922.223Z"/><path d="M10779.747,922.223a5.486,5.486,0,1,0-5.484-5.486A5.484,5.484,0,0,0,10779.747,922.223Z"/><path d="M10801.909,922.223a5.486,5.486,0,1,0-5.484-5.486A5.484,5.484,0,0,0,10801.909,922.223Z"/><path d="M10824.072,922.223a5.486,5.486,0,1,0-5.484-5.486A5.484,5.484,0,0,0,10824.072,922.223Z"/><path d="M10447.312,944.385a5.485,5.485,0,1,0-5.483-5.485A5.486,5.486,0,0,0,10447.312,944.385Z"/><path d="M10469.475,944.385a5.485,5.485,0,1,0-5.483-5.485A5.485,5.485,0,0,0,10469.475,944.385Z"/><path d="M10491.638,944.385a5.485,5.485,0,1,0-5.488-5.485A5.486,5.486,0,0,0,10491.638,944.385Z"/><path d="M10513.8,944.385a5.485,5.485,0,1,0-5.488-5.485A5.486,5.486,0,0,0,10513.8,944.385Z"/><path d="M10535.965,944.385a5.485,5.485,0,1,0-5.489-5.485A5.484,5.484,0,0,0,10535.965,944.385Z"/><path d="M10558.125,944.385a5.485,5.485,0,1,0-5.488-5.485A5.486,5.486,0,0,0,10558.125,944.385Z"/><path d="M10580.288,944.385a5.485,5.485,0,1,0-5.488-5.485A5.486,5.486,0,0,0,10580.288,944.385Z"/><path d="M10602.446,944.385a5.485,5.485,0,1,0-5.484-5.485A5.485,5.485,0,0,0,10602.446,944.385Z"/><path d="M10624.609,944.385a5.485,5.485,0,1,0-5.484-5.485A5.487,5.487,0,0,0,10624.609,944.385Z"/><path d="M10646.774,944.385a5.485,5.485,0,1,0-5.487-5.485A5.488,5.488,0,0,0,10646.774,944.385Z"/><path d="M10668.934,944.385a5.485,5.485,0,1,0-5.483-5.485A5.485,5.485,0,0,0,10668.934,944.385Z"/><path d="M10691.1,944.385a5.485,5.485,0,1,0-5.484-5.485A5.487,5.487,0,0,0,10691.1,944.385Z"/><circle cx="5.485" cy="5.485" r="5.485" transform="translate(10707.774 933.415)"/><circle cx="5.485" cy="5.485" r="5.485" transform="matrix(0.003, -1, 1, 0.003, 10729.919, 944.368)"/><path d="M10757.584,944.385a5.485,5.485,0,1,0-5.484-5.485A5.484,5.484,0,0,0,10757.584,944.385Z"/><circle cx="5.485" cy="5.485" r="5.485" transform="translate(10774.262 933.415)"/><path d="M10801.909,944.385a5.485,5.485,0,1,0-5.484-5.485A5.483,5.483,0,0,0,10801.909,944.385Z"/><path d="M10824.072,944.385a5.485,5.485,0,1,0-5.484-5.485A5.483,5.483,0,0,0,10824.072,944.385Z"/><path d="M10447.312,966.547a5.485,5.485,0,1,0-5.483-5.485A5.485,5.485,0,0,0,10447.312,966.547Z"/><path d="M10469.475,966.547a5.485,5.485,0,1,0-5.483-5.485A5.484,5.484,0,0,0,10469.475,966.547Z"/><path d="M10491.638,966.547a5.485,5.485,0,1,0-5.488-5.485A5.485,5.485,0,0,0,10491.638,966.547Z"/><path d="M10513.8,966.547a5.485,5.485,0,1,0-5.488-5.485A5.485,5.485,0,0,0,10513.8,966.547Z"/><path d="M10535.965,966.547a5.485,5.485,0,1,0-5.489-5.485A5.484,5.484,0,0,0,10535.965,966.547Z"/><path d="M10558.125,966.547a5.485,5.485,0,1,0-5.488-5.485A5.485,5.485,0,0,0,10558.125,966.547Z"/><path d="M10580.288,966.547a5.485,5.485,0,1,0-5.488-5.485A5.485,5.485,0,0,0,10580.288,966.547Z"/><path d="M10602.446,966.547a5.485,5.485,0,1,0-5.484-5.485A5.484,5.484,0,0,0,10602.446,966.547Z"/><path d="M10624.609,966.547a5.485,5.485,0,1,0-5.484-5.485A5.486,5.486,0,0,0,10624.609,966.547Z"/><path d="M10646.774,966.547a5.485,5.485,0,1,0-5.487-5.485A5.487,5.487,0,0,0,10646.774,966.547Z"/><path d="M10668.934,966.547a5.485,5.485,0,1,0-5.483-5.485A5.485,5.485,0,0,0,10668.934,966.547Z"/><path d="M10691.1,966.547a5.485,5.485,0,1,0-5.484-5.485A5.486,5.486,0,0,0,10691.1,966.547Z"/><path d="M10713.259,966.547a5.485,5.485,0,1,0-5.483-5.485A5.483,5.483,0,0,0,10713.259,966.547Z"/><path d="M10735.422,966.547a5.485,5.485,0,1,0-5.483-5.485A5.482,5.482,0,0,0,10735.422,966.547Z"/><path d="M10757.584,966.547a5.485,5.485,0,1,0-5.484-5.485A5.483,5.483,0,0,0,10757.584,966.547Z"/><path d="M10779.747,966.547a5.485,5.485,0,1,0-5.484-5.485A5.483,5.483,0,0,0,10779.747,966.547Z"/><path d="M10801.909,966.547a5.485,5.485,0,1,0-5.484-5.485A5.482,5.482,0,0,0,10801.909,966.547Z"/><path d="M10824.072,966.547a5.485,5.485,0,1,0-5.484-5.485A5.483,5.483,0,0,0,10824.072,966.547Z"/><path d="M10447.312,988.709a5.484,5.484,0,1,0-5.483-5.484A5.486,5.486,0,0,0,10447.312,988.709Z"/><path d="M10469.475,988.709a5.484,5.484,0,1,0-5.483-5.484A5.484,5.484,0,0,0,10469.475,988.709Z"/><path d="M10491.638,988.709a5.484,5.484,0,1,0-5.488-5.484A5.486,5.486,0,0,0,10491.638,988.709Z"/><path d="M10513.8,988.709a5.484,5.484,0,1,0-5.488-5.484A5.486,5.486,0,0,0,10513.8,988.709Z"/><path d="M10535.965,988.709a5.484,5.484,0,1,0-5.489-5.484A5.484,5.484,0,0,0,10535.965,988.709Z"/><path d="M10558.125,988.709a5.484,5.484,0,1,0-5.488-5.484A5.486,5.486,0,0,0,10558.125,988.709Z"/><path d="M10580.288,988.709a5.484,5.484,0,1,0-5.488-5.484A5.486,5.486,0,0,0,10580.288,988.709Z"/><path d="M10602.446,988.709a5.484,5.484,0,1,0-5.484-5.484A5.485,5.485,0,0,0,10602.446,988.709Z"/><path d="M10624.609,988.709a5.484,5.484,0,1,0-5.484-5.484A5.486,5.486,0,0,0,10624.609,988.709Z"/><path d="M10646.774,988.709a5.484,5.484,0,1,0-5.487-5.484A5.488,5.488,0,0,0,10646.774,988.709Z"/><path d="M10668.934,988.709a5.484,5.484,0,1,0-5.483-5.484A5.485,5.485,0,0,0,10668.934,988.709Z"/><path d="M10691.1,988.709a5.484,5.484,0,1,0-5.484-5.484A5.487,5.487,0,0,0,10691.1,988.709Z"/><path d="M10713.259,988.709a5.484,5.484,0,1,0-5.483-5.484A5.483,5.483,0,0,0,10713.259,988.709Z"/><path d="M10735.422,988.709a5.484,5.484,0,1,0-5.483-5.484A5.482,5.482,0,0,0,10735.422,988.709Z"/><path d="M10757.584,988.709a5.484,5.484,0,1,0-5.484-5.484A5.483,5.483,0,0,0,10757.584,988.709Z"/><path d="M10779.747,988.709a5.484,5.484,0,1,0-5.484-5.484A5.483,5.483,0,0,0,10779.747,988.709Z"/><path d="M10801.909,988.709a5.484,5.484,0,1,0-5.484-5.484A5.483,5.483,0,0,0,10801.909,988.709Z"/><path d="M10824.072,988.709a5.484,5.484,0,1,0-5.484-5.484A5.483,5.483,0,0,0,10824.072,988.709Z"/><path d="M10846.235,988.709a5.484,5.484,0,1,0-5.483-5.484A5.483,5.483,0,0,0,10846.235,988.709Z"/><path d="M10402.987,1010.872a5.485,5.485,0,1,0-5.484-5.486A5.487,5.487,0,0,0,10402.987,1010.872Z"/><path d="M10425.15,1010.872a5.485,5.485,0,1,0-5.482-5.486A5.486,5.486,0,0,0,10425.15,1010.872Z"/><path d="M10447.312,1010.872a5.485,5.485,0,1,0-5.483-5.486A5.486,5.486,0,0,0,10447.312,1010.872Z"/><path d="M10469.475,1010.872a5.485,5.485,0,1,0-5.483-5.486A5.485,5.485,0,0,0,10469.475,1010.872Z"/><path d="M10491.638,1010.872a5.485,5.485,0,1,0-5.488-5.486A5.486,5.486,0,0,0,10491.638,1010.872Z"/><path d="M10513.8,1010.872a5.485,5.485,0,1,0-5.488-5.486A5.486,5.486,0,0,0,10513.8,1010.872Z"/><path d="M10535.965,1010.872a5.485,5.485,0,1,0-5.489-5.486A5.484,5.484,0,0,0,10535.965,1010.872Z"/><path d="M10558.125,1010.872a5.485,5.485,0,1,0-5.488-5.486A5.486,5.486,0,0,0,10558.125,1010.872Z"/><path d="M10580.288,1010.872a5.485,5.485,0,1,0-5.488-5.486A5.486,5.486,0,0,0,10580.288,1010.872Z"/><path d="M10602.446,1010.872a5.485,5.485,0,1,0-5.484-5.486A5.485,5.485,0,0,0,10602.446,1010.872Z"/><path d="M10624.609,1010.872a5.485,5.485,0,1,0-5.484-5.486A5.487,5.487,0,0,0,10624.609,1010.872Z"/><path d="M10646.774,1010.872a5.485,5.485,0,1,0-5.487-5.486A5.488,5.488,0,0,0,10646.774,1010.872Z"/><path d="M10668.934,1010.872a5.485,5.485,0,1,0-5.483-5.486A5.486,5.486,0,0,0,10668.934,1010.872Z"/><path d="M10691.1,1010.872a5.485,5.485,0,1,0-5.484-5.486A5.487,5.487,0,0,0,10691.1,1010.872Z"/><path d="M10713.259,1010.872a5.485,5.485,0,1,0-5.483-5.486A5.484,5.484,0,0,0,10713.259,1010.872Z"/><path d="M10735.422,1010.872a5.485,5.485,0,1,0-5.483-5.486A5.482,5.482,0,0,0,10735.422,1010.872Z"/><path d="M10757.584,1010.872a5.485,5.485,0,1,0-5.484-5.486A5.484,5.484,0,0,0,10757.584,1010.872Z"/><path d="M10779.747,1010.872a5.485,5.485,0,1,0-5.484-5.486A5.484,5.484,0,0,0,10779.747,1010.872Z"/><path d="M10801.909,1010.872a5.485,5.485,0,1,0-5.484-5.486A5.483,5.483,0,0,0,10801.909,1010.872Z"/><path d="M10824.072,1010.872a5.485,5.485,0,1,0-5.484-5.486A5.483,5.483,0,0,0,10824.072,1010.872Z"/><path d="M10846.235,1010.872a5.485,5.485,0,1,0-5.483-5.486A5.483,5.483,0,0,0,10846.235,1010.872Z"/><path d="M10868.4,1010.872a5.485,5.485,0,1,0-5.484-5.486A5.483,5.483,0,0,0,10868.4,1010.872Z"/><path d="M10402.987,1033.034a5.485,5.485,0,1,0-5.484-5.485A5.487,5.487,0,0,0,10402.987,1033.034Z"/><path d="M10425.15,1033.034a5.485,5.485,0,1,0-5.482-5.485A5.486,5.486,0,0,0,10425.15,1033.034Z"/><path d="M10447.312,1033.034a5.485,5.485,0,1,0-5.483-5.485A5.486,5.486,0,0,0,10447.312,1033.034Z"/><path d="M10469.475,1033.034a5.485,5.485,0,1,0-5.483-5.485A5.485,5.485,0,0,0,10469.475,1033.034Z"/><path d="M10491.638,1033.034a5.485,5.485,0,1,0-5.488-5.485A5.486,5.486,0,0,0,10491.638,1033.034Z"/><path d="M10513.8,1033.034a5.485,5.485,0,1,0-5.488-5.485A5.486,5.486,0,0,0,10513.8,1033.034Z"/><path d="M10535.965,1033.034a5.485,5.485,0,1,0-5.489-5.485A5.484,5.484,0,0,0,10535.965,1033.034Z"/><path d="M10558.125,1033.034a5.485,5.485,0,1,0-5.488-5.485A5.486,5.486,0,0,0,10558.125,1033.034Z"/><path d="M10580.288,1033.034a5.485,5.485,0,1,0-5.488-5.485A5.486,5.486,0,0,0,10580.288,1033.034Z"/><path d="M10602.446,1033.034a5.485,5.485,0,1,0-5.484-5.485A5.485,5.485,0,0,0,10602.446,1033.034Z"/><path d="M10624.609,1033.034a5.485,5.485,0,1,0-5.484-5.485A5.487,5.487,0,0,0,10624.609,1033.034Z"/><path d="M10646.774,1033.034a5.485,5.485,0,1,0-5.487-5.485A5.488,5.488,0,0,0,10646.774,1033.034Z"/><path d="M10668.934,1033.034a5.485,5.485,0,1,0-5.483-5.485A5.486,5.486,0,0,0,10668.934,1033.034Z"/><path d="M10691.1,1033.034a5.485,5.485,0,1,0-5.484-5.485A5.487,5.487,0,0,0,10691.1,1033.034Z"/><path d="M10713.259,1033.034a5.485,5.485,0,1,0-5.483-5.485A5.483,5.483,0,0,0,10713.259,1033.034Z"/><path d="M10735.422,1033.034a5.485,5.485,0,1,0-5.483-5.485A5.482,5.482,0,0,0,10735.422,1033.034Z"/><path d="M10757.584,1033.034a5.485,5.485,0,1,0-5.484-5.485A5.484,5.484,0,0,0,10757.584,1033.034Z"/><path d="M10779.747,1033.034a5.485,5.485,0,1,0-5.484-5.485A5.483,5.483,0,0,0,10779.747,1033.034Z"/><path d="M10801.909,1033.034a5.485,5.485,0,1,0-5.484-5.485A5.483,5.483,0,0,0,10801.909,1033.034Z"/><path d="M10824.072,1033.034a5.485,5.485,0,1,0-5.484-5.485A5.483,5.483,0,0,0,10824.072,1033.034Z"/><path d="M10846.235,1033.034a5.485,5.485,0,1,0-5.483-5.485A5.483,5.483,0,0,0,10846.235,1033.034Z"/><path d="M10868.4,1033.034a5.485,5.485,0,1,0-5.484-5.485A5.483,5.483,0,0,0,10868.4,1033.034Z"/><path d="M10402.987,1055.2a5.485,5.485,0,1,0-5.484-5.485A5.487,5.487,0,0,0,10402.987,1055.2Z"/><path d="M10425.15,1055.2a5.485,5.485,0,1,0-5.482-5.485A5.486,5.486,0,0,0,10425.15,1055.2Z"/><path d="M10447.312,1055.2a5.485,5.485,0,1,0-5.483-5.485A5.486,5.486,0,0,0,10447.312,1055.2Z"/><path d="M10469.475,1055.2a5.485,5.485,0,1,0-5.483-5.485A5.485,5.485,0,0,0,10469.475,1055.2Z"/><path d="M10491.638,1055.2a5.485,5.485,0,1,0-5.488-5.485A5.486,5.486,0,0,0,10491.638,1055.2Z"/><path d="M10513.8,1055.2a5.485,5.485,0,1,0-5.488-5.485A5.486,5.486,0,0,0,10513.8,1055.2Z"/><path d="M10535.965,1055.2a5.485,5.485,0,1,0-5.489-5.485A5.484,5.484,0,0,0,10535.965,1055.2Z"/><path d="M10558.125,1055.2a5.485,5.485,0,1,0-5.488-5.485A5.486,5.486,0,0,0,10558.125,1055.2Z"/><path d="M10580.288,1055.2a5.485,5.485,0,1,0-5.488-5.485A5.486,5.486,0,0,0,10580.288,1055.2Z"/><path d="M10602.446,1055.2a5.485,5.485,0,1,0-5.484-5.485A5.485,5.485,0,0,0,10602.446,1055.2Z"/><path d="M10624.609,1055.2a5.485,5.485,0,1,0-5.484-5.485A5.487,5.487,0,0,0,10624.609,1055.2Z"/><path d="M10646.774,1055.2a5.485,5.485,0,1,0-5.487-5.485A5.488,5.488,0,0,0,10646.774,1055.2Z"/><path d="M10668.934,1055.2a5.485,5.485,0,1,0-5.483-5.485A5.486,5.486,0,0,0,10668.934,1055.2Z"/><path d="M10691.1,1055.2a5.485,5.485,0,1,0-5.484-5.485A5.487,5.487,0,0,0,10691.1,1055.2Z"/><path d="M10713.259,1055.2a5.485,5.485,0,1,0-5.483-5.485A5.483,5.483,0,0,0,10713.259,1055.2Z"/><path d="M10735.422,1055.2a5.485,5.485,0,1,0-5.483-5.485A5.482,5.482,0,0,0,10735.422,1055.2Z"/><path d="M10757.584,1055.2a5.485,5.485,0,1,0-5.484-5.485A5.484,5.484,0,0,0,10757.584,1055.2Z"/><path d="M10779.747,1055.2a5.485,5.485,0,1,0-5.484-5.485A5.483,5.483,0,0,0,10779.747,1055.2Z"/><path d="M10801.909,1055.2a5.485,5.485,0,1,0-5.484-5.485A5.483,5.483,0,0,0,10801.909,1055.2Z"/><path d="M10824.072,1055.2a5.485,5.485,0,1,0-5.484-5.485A5.483,5.483,0,0,0,10824.072,1055.2Z"/><path d="M10846.235,1055.2a5.485,5.485,0,1,0-5.483-5.485A5.483,5.483,0,0,0,10846.235,1055.2Z"/><path d="M10868.4,1055.2a5.485,5.485,0,1,0-5.484-5.485A5.483,5.483,0,0,0,10868.4,1055.2Z"/><path d="M10890.56,1055.2a5.485,5.485,0,1,0-5.484-5.485A5.483,5.483,0,0,0,10890.56,1055.2Z"/><path d="M10402.987,1077.359a5.485,5.485,0,1,0-5.484-5.485A5.487,5.487,0,0,0,10402.987,1077.359Z"/><path d="M10425.15,1077.359a5.485,5.485,0,1,0-5.482-5.485A5.486,5.486,0,0,0,10425.15,1077.359Z"/><path d="M10447.312,1077.359a5.485,5.485,0,1,0-5.483-5.485A5.486,5.486,0,0,0,10447.312,1077.359Z"/><path d="M10469.475,1077.359a5.485,5.485,0,1,0-5.483-5.485A5.485,5.485,0,0,0,10469.475,1077.359Z"/><path d="M10491.638,1077.359a5.485,5.485,0,1,0-5.488-5.485A5.486,5.486,0,0,0,10491.638,1077.359Z"/><path d="M10513.8,1077.359a5.485,5.485,0,1,0-5.488-5.485A5.486,5.486,0,0,0,10513.8,1077.359Z"/><path d="M10535.965,1077.359a5.485,5.485,0,1,0-5.489-5.485A5.484,5.484,0,0,0,10535.965,1077.359Z"/><path d="M10558.125,1077.359a5.485,5.485,0,1,0-5.488-5.485A5.486,5.486,0,0,0,10558.125,1077.359Z"/><path d="M10580.288,1077.359a5.485,5.485,0,1,0-5.488-5.485A5.486,5.486,0,0,0,10580.288,1077.359Z"/><path d="M10602.446,1077.359a5.485,5.485,0,1,0-5.484-5.485A5.485,5.485,0,0,0,10602.446,1077.359Z"/><path d="M10624.609,1077.359a5.485,5.485,0,1,0-5.484-5.485A5.487,5.487,0,0,0,10624.609,1077.359Z"/><path d="M10646.774,1077.359a5.485,5.485,0,1,0-5.487-5.485A5.488,5.488,0,0,0,10646.774,1077.359Z"/><path d="M10668.934,1077.359a5.485,5.485,0,1,0-5.483-5.485A5.486,5.486,0,0,0,10668.934,1077.359Z"/><path d="M10691.1,1077.359a5.485,5.485,0,1,0-5.484-5.485A5.487,5.487,0,0,0,10691.1,1077.359Z"/><circle cx="5.485" cy="5.485" r="5.485" transform="translate(10707.774 1066.389)"/><circle cx="5.485" cy="5.485" r="5.485" transform="matrix(0.003, -1, 1, 0.003, 10729.919, 1077.342)"/><path d="M10757.584,1077.359a5.485,5.485,0,1,0-5.484-5.485A5.484,5.484,0,0,0,10757.584,1077.359Z"/><circle cx="5.485" cy="5.485" r="5.485" transform="translate(10774.262 1066.389)"/><path d="M10801.909,1077.359a5.485,5.485,0,1,0-5.484-5.485A5.483,5.483,0,0,0,10801.909,1077.359Z"/><path d="M10824.072,1077.359a5.485,5.485,0,1,0-5.484-5.485A5.483,5.483,0,0,0,10824.072,1077.359Z"/><path d="M10846.235,1077.359a5.485,5.485,0,1,0-5.483-5.485A5.483,5.483,0,0,0,10846.235,1077.359Z"/><path d="M10868.4,1077.359a5.485,5.485,0,1,0-5.484-5.485A5.483,5.483,0,0,0,10868.4,1077.359Z"/><path d="M10890.56,1077.359a5.485,5.485,0,1,0-5.484-5.485A5.483,5.483,0,0,0,10890.56,1077.359Z"/><path d="M10402.987,1099.522a5.485,5.485,0,1,0-5.484-5.485A5.487,5.487,0,0,0,10402.987,1099.522Z"/><path d="M10425.15,1099.522a5.485,5.485,0,1,0-5.482-5.485A5.486,5.486,0,0,0,10425.15,1099.522Z"/><path d="M10447.312,1099.522a5.485,5.485,0,1,0-5.483-5.485A5.486,5.486,0,0,0,10447.312,1099.522Z"/><path d="M10469.475,1099.522a5.485,5.485,0,1,0-5.483-5.485A5.485,5.485,0,0,0,10469.475,1099.522Z"/><path d="M10491.638,1099.522a5.485,5.485,0,1,0-5.488-5.485A5.486,5.486,0,0,0,10491.638,1099.522Z"/><path d="M10513.8,1099.522a5.485,5.485,0,1,0-5.488-5.485A5.486,5.486,0,0,0,10513.8,1099.522Z"/><path d="M10535.965,1099.522a5.485,5.485,0,1,0-5.489-5.485A5.484,5.484,0,0,0,10535.965,1099.522Z"/><path d="M10558.125,1099.522a5.485,5.485,0,1,0-5.488-5.485A5.486,5.486,0,0,0,10558.125,1099.522Z"/><path d="M10580.288,1099.522a5.485,5.485,0,1,0-5.488-5.485A5.486,5.486,0,0,0,10580.288,1099.522Z"/><path d="M10602.446,1099.522a5.485,5.485,0,1,0-5.484-5.485A5.485,5.485,0,0,0,10602.446,1099.522Z"/><path d="M10624.609,1099.522a5.485,5.485,0,1,0-5.484-5.485A5.486,5.486,0,0,0,10624.609,1099.522Z"/><path d="M10646.774,1099.522a5.485,5.485,0,1,0-5.487-5.485A5.488,5.488,0,0,0,10646.774,1099.522Z"/><path d="M10668.934,1099.522a5.485,5.485,0,1,0-5.483-5.485A5.485,5.485,0,0,0,10668.934,1099.522Z"/><path d="M10691.1,1099.522a5.485,5.485,0,1,0-5.484-5.485A5.487,5.487,0,0,0,10691.1,1099.522Z"/><path d="M10713.259,1099.522a5.485,5.485,0,1,0-5.483-5.485A5.483,5.483,0,0,0,10713.259,1099.522Z"/><path d="M10735.422,1099.522a5.485,5.485,0,1,0-5.483-5.485A5.482,5.482,0,0,0,10735.422,1099.522Z"/><path d="M10757.584,1099.522a5.485,5.485,0,1,0-5.484-5.485A5.484,5.484,0,0,0,10757.584,1099.522Z"/><path d="M10779.747,1099.522a5.485,5.485,0,1,0-5.484-5.485A5.483,5.483,0,0,0,10779.747,1099.522Z"/><path d="M10801.909,1099.522a5.485,5.485,0,1,0-5.484-5.485A5.483,5.483,0,0,0,10801.909,1099.522Z"/><path d="M10824.072,1099.522a5.485,5.485,0,1,0-5.484-5.485A5.483,5.483,0,0,0,10824.072,1099.522Z"/><path d="M10846.235,1099.522a5.485,5.485,0,1,0-5.483-5.485A5.483,5.483,0,0,0,10846.235,1099.522Z"/><path d="M10868.4,1099.522a5.485,5.485,0,1,0-5.484-5.485A5.483,5.483,0,0,0,10868.4,1099.522Z"/><path d="M10890.56,1099.522a5.485,5.485,0,1,0-5.484-5.485A5.483,5.483,0,0,0,10890.56,1099.522Z"/><path d="M10402.987,1121.684a5.485,5.485,0,1,0-5.484-5.485A5.486,5.486,0,0,0,10402.987,1121.684Z"/><path d="M10425.15,1121.684a5.485,5.485,0,1,0-5.482-5.485A5.485,5.485,0,0,0,10425.15,1121.684Z"/><path d="M10447.312,1121.684a5.485,5.485,0,1,0-5.483-5.485A5.485,5.485,0,0,0,10447.312,1121.684Z"/><path d="M10469.475,1121.684a5.485,5.485,0,1,0-5.483-5.485A5.484,5.484,0,0,0,10469.475,1121.684Z"/><path d="M10491.638,1121.684a5.485,5.485,0,1,0-5.488-5.485A5.485,5.485,0,0,0,10491.638,1121.684Z"/><path d="M10513.8,1121.684a5.485,5.485,0,1,0-5.488-5.485A5.485,5.485,0,0,0,10513.8,1121.684Z"/><path d="M10535.965,1121.684a5.485,5.485,0,1,0-5.489-5.485A5.484,5.484,0,0,0,10535.965,1121.684Z"/><path d="M10558.125,1121.684a5.485,5.485,0,1,0-5.488-5.485A5.485,5.485,0,0,0,10558.125,1121.684Z"/><path d="M10580.288,1121.684a5.485,5.485,0,1,0-5.488-5.485A5.485,5.485,0,0,0,10580.288,1121.684Z"/><path d="M10602.446,1121.684a5.485,5.485,0,1,0-5.484-5.485A5.484,5.484,0,0,0,10602.446,1121.684Z"/><path d="M10624.609,1121.684a5.485,5.485,0,1,0-5.484-5.485A5.486,5.486,0,0,0,10624.609,1121.684Z"/><path d="M10646.774,1121.684a5.485,5.485,0,1,0-5.487-5.485A5.487,5.487,0,0,0,10646.774,1121.684Z"/><path d="M10668.934,1121.684a5.485,5.485,0,1,0-5.483-5.485A5.485,5.485,0,0,0,10668.934,1121.684Z"/><path d="M10691.1,1121.684a5.485,5.485,0,1,0-5.484-5.485A5.486,5.486,0,0,0,10691.1,1121.684Z"/><path d="M10713.259,1121.684a5.485,5.485,0,1,0-5.483-5.485A5.483,5.483,0,0,0,10713.259,1121.684Z"/><path d="M10735.422,1121.684a5.485,5.485,0,1,0-5.483-5.485A5.481,5.481,0,0,0,10735.422,1121.684Z"/><path d="M10757.584,1121.684a5.485,5.485,0,1,0-5.484-5.485A5.483,5.483,0,0,0,10757.584,1121.684Z"/><path d="M10779.747,1121.684a5.485,5.485,0,1,0-5.484-5.485A5.483,5.483,0,0,0,10779.747,1121.684Z"/><path d="M10801.909,1121.684a5.485,5.485,0,1,0-5.484-5.485A5.482,5.482,0,0,0,10801.909,1121.684Z"/><path d="M10824.072,1121.684a5.485,5.485,0,1,0-5.484-5.485A5.483,5.483,0,0,0,10824.072,1121.684Z"/><path d="M10846.235,1121.684a5.485,5.485,0,1,0-5.483-5.485A5.483,5.483,0,0,0,10846.235,1121.684Z"/><path d="M10868.4,1121.684a5.485,5.485,0,1,0-5.484-5.485A5.483,5.483,0,0,0,10868.4,1121.684Z"/><path d="M10402.987,1143.846a5.484,5.484,0,1,0-5.484-5.484A5.486,5.486,0,0,0,10402.987,1143.846Z"/><path d="M10425.15,1143.846a5.484,5.484,0,1,0-5.482-5.484A5.485,5.485,0,0,0,10425.15,1143.846Z"/><path d="M10447.312,1143.846a5.484,5.484,0,1,0-5.483-5.484A5.485,5.485,0,0,0,10447.312,1143.846Z"/><path d="M10469.475,1143.846a5.484,5.484,0,1,0-5.483-5.484A5.484,5.484,0,0,0,10469.475,1143.846Z"/><path d="M10491.638,1143.846a5.484,5.484,0,1,0-5.488-5.484A5.485,5.485,0,0,0,10491.638,1143.846Z"/><path d="M10513.8,1143.846a5.484,5.484,0,1,0-5.488-5.484A5.485,5.485,0,0,0,10513.8,1143.846Z"/><path d="M10535.965,1143.846a5.484,5.484,0,1,0-5.489-5.484A5.483,5.483,0,0,0,10535.965,1143.846Z"/><path d="M10558.125,1143.846a5.484,5.484,0,1,0-5.488-5.484A5.485,5.485,0,0,0,10558.125,1143.846Z"/><path d="M10580.288,1143.846a5.484,5.484,0,1,0-5.488-5.484A5.485,5.485,0,0,0,10580.288,1143.846Z"/><path d="M10602.446,1143.846a5.484,5.484,0,1,0-5.484-5.484A5.484,5.484,0,0,0,10602.446,1143.846Z"/><path d="M10624.609,1143.846a5.484,5.484,0,1,0-5.484-5.484A5.486,5.486,0,0,0,10624.609,1143.846Z"/><path d="M10646.774,1143.846a5.484,5.484,0,1,0-5.487-5.484A5.487,5.487,0,0,0,10646.774,1143.846Z"/><path d="M10668.934,1143.846a5.484,5.484,0,1,0-5.483-5.484A5.485,5.485,0,0,0,10668.934,1143.846Z"/><path d="M10691.1,1143.846a5.484,5.484,0,1,0-5.484-5.484A5.486,5.486,0,0,0,10691.1,1143.846Z"/><path d="M10713.259,1143.846a5.484,5.484,0,1,0-5.483-5.484A5.482,5.482,0,0,0,10713.259,1143.846Z"/><path d="M10735.422,1143.846a5.484,5.484,0,1,0-5.483-5.484A5.481,5.481,0,0,0,10735.422,1143.846Z"/><path d="M10757.584,1143.846a5.484,5.484,0,1,0-5.484-5.484A5.483,5.483,0,0,0,10757.584,1143.846Z"/><path d="M10779.747,1143.846a5.484,5.484,0,1,0-5.484-5.484A5.482,5.482,0,0,0,10779.747,1143.846Z"/><path d="M10801.909,1143.846a5.484,5.484,0,1,0-5.484-5.484A5.482,5.482,0,0,0,10801.909,1143.846Z"/><path d="M10824.072,1143.846a5.484,5.484,0,1,0-5.484-5.484A5.482,5.482,0,0,0,10824.072,1143.846Z"/><path d="M10402.987,1166.009a5.485,5.485,0,1,0-5.484-5.485A5.486,5.486,0,0,0,10402.987,1166.009Z"/><path d="M10425.15,1166.009a5.485,5.485,0,1,0-5.482-5.485A5.485,5.485,0,0,0,10425.15,1166.009Z"/><path d="M10447.312,1166.009a5.485,5.485,0,1,0-5.483-5.485A5.486,5.486,0,0,0,10447.312,1166.009Z"/><path d="M10469.475,1166.009a5.485,5.485,0,1,0-5.483-5.485A5.484,5.484,0,0,0,10469.475,1166.009Z"/><path d="M10491.638,1166.009a5.485,5.485,0,1,0-5.488-5.485A5.485,5.485,0,0,0,10491.638,1166.009Z"/><path d="M10513.8,1166.009a5.485,5.485,0,1,0-5.488-5.485A5.485,5.485,0,0,0,10513.8,1166.009Z"/><path d="M10535.965,1166.009a5.485,5.485,0,1,0-5.489-5.485A5.484,5.484,0,0,0,10535.965,1166.009Z"/><path d="M10558.125,1166.009a5.485,5.485,0,1,0-5.488-5.485A5.485,5.485,0,0,0,10558.125,1166.009Z"/><path d="M10580.288,1166.009a5.485,5.485,0,1,0-5.488-5.485A5.485,5.485,0,0,0,10580.288,1166.009Z"/><path d="M10602.446,1166.009a5.485,5.485,0,1,0-5.484-5.485A5.484,5.484,0,0,0,10602.446,1166.009Z"/><path d="M10624.609,1166.009a5.485,5.485,0,1,0-5.484-5.485A5.486,5.486,0,0,0,10624.609,1166.009Z"/><path d="M10646.774,1166.009a5.485,5.485,0,1,0-5.487-5.485A5.487,5.487,0,0,0,10646.774,1166.009Z"/><path d="M10668.934,1166.009a5.485,5.485,0,1,0-5.483-5.485A5.485,5.485,0,0,0,10668.934,1166.009Z"/><path d="M10691.1,1166.009a5.485,5.485,0,1,0-5.484-5.485A5.486,5.486,0,0,0,10691.1,1166.009Z"/><path d="M10713.259,1166.009a5.485,5.485,0,1,0-5.483-5.485A5.483,5.483,0,0,0,10713.259,1166.009Z"/><path d="M10735.422,1166.009a5.485,5.485,0,1,0-5.483-5.485A5.482,5.482,0,0,0,10735.422,1166.009Z"/><path d="M10402.987,1188.171a5.485,5.485,0,1,0-5.484-5.484A5.486,5.486,0,0,0,10402.987,1188.171Z"/><path d="M10425.15,1188.171a5.485,5.485,0,1,0-5.482-5.484A5.485,5.485,0,0,0,10425.15,1188.171Z"/><path d="M10447.312,1188.171a5.485,5.485,0,1,0-5.483-5.484A5.485,5.485,0,0,0,10447.312,1188.171Z"/><path d="M10469.475,1188.171a5.485,5.485,0,1,0-5.483-5.484A5.484,5.484,0,0,0,10469.475,1188.171Z"/><path d="M10491.638,1188.171a5.485,5.485,0,1,0-5.488-5.484A5.485,5.485,0,0,0,10491.638,1188.171Z"/><path d="M10513.8,1188.171a5.485,5.485,0,1,0-5.488-5.484A5.485,5.485,0,0,0,10513.8,1188.171Z"/><path d="M10535.965,1188.171a5.485,5.485,0,1,0-5.489-5.484A5.483,5.483,0,0,0,10535.965,1188.171Z"/><path d="M10558.125,1188.171a5.485,5.485,0,1,0-5.488-5.484A5.485,5.485,0,0,0,10558.125,1188.171Z"/><path d="M10580.288,1188.171a5.485,5.485,0,1,0-5.488-5.484A5.485,5.485,0,0,0,10580.288,1188.171Z"/><path d="M10602.446,1188.171a5.485,5.485,0,1,0-5.484-5.484A5.484,5.484,0,0,0,10602.446,1188.171Z"/><path d="M10624.609,1188.171a5.485,5.485,0,1,0-5.484-5.484A5.486,5.486,0,0,0,10624.609,1188.171Z"/><path d="M10646.774,1188.171a5.485,5.485,0,1,0-5.487-5.484A5.487,5.487,0,0,0,10646.774,1188.171Z"/><path d="M10668.934,1188.171a5.485,5.485,0,1,0-5.483-5.484A5.485,5.485,0,0,0,10668.934,1188.171Z"/><path d="M10691.1,1188.171a5.485,5.485,0,1,0-5.484-5.484A5.486,5.486,0,0,0,10691.1,1188.171Z"/><path d="M10713.259,1188.171a5.485,5.485,0,1,0-5.483-5.484A5.483,5.483,0,0,0,10713.259,1188.171Z"/><path d="M10735.422,1188.171a5.485,5.485,0,1,0-5.483-5.484A5.481,5.481,0,0,0,10735.422,1188.171Z"/><path d="M10402.987,1210.334a5.485,5.485,0,1,0-5.484-5.484A5.486,5.486,0,0,0,10402.987,1210.334Z"/><path d="M10425.15,1210.334a5.485,5.485,0,1,0-5.482-5.484A5.485,5.485,0,0,0,10425.15,1210.334Z"/><path d="M10447.312,1210.334a5.485,5.485,0,1,0-5.483-5.484A5.485,5.485,0,0,0,10447.312,1210.334Z"/><path d="M10469.475,1210.334a5.485,5.485,0,1,0-5.483-5.484A5.484,5.484,0,0,0,10469.475,1210.334Z"/><path d="M10491.638,1210.334a5.485,5.485,0,1,0-5.488-5.484A5.485,5.485,0,0,0,10491.638,1210.334Z"/><path d="M10513.8,1210.334a5.485,5.485,0,1,0-5.488-5.484A5.485,5.485,0,0,0,10513.8,1210.334Z"/><path d="M10535.965,1210.334a5.485,5.485,0,1,0-5.489-5.484A5.483,5.483,0,0,0,10535.965,1210.334Z"/><path d="M10558.125,1210.334a5.485,5.485,0,1,0-5.488-5.484A5.485,5.485,0,0,0,10558.125,1210.334Z"/><path d="M10580.288,1210.334a5.485,5.485,0,1,0-5.488-5.484A5.485,5.485,0,0,0,10580.288,1210.334Z"/><path d="M10602.446,1210.334a5.485,5.485,0,1,0-5.484-5.484A5.484,5.484,0,0,0,10602.446,1210.334Z"/><path d="M10624.609,1210.334a5.485,5.485,0,1,0-5.484-5.484A5.486,5.486,0,0,0,10624.609,1210.334Z"/><path d="M10646.774,1210.334a5.485,5.485,0,1,0-5.487-5.484A5.487,5.487,0,0,0,10646.774,1210.334Z"/><path d="M10668.934,1210.334a5.485,5.485,0,1,0-5.483-5.484A5.485,5.485,0,0,0,10668.934,1210.334Z"/><path d="M10691.1,1210.334a5.485,5.485,0,1,0-5.484-5.484A5.486,5.486,0,0,0,10691.1,1210.334Z"/><path d="M10713.259,1210.334a5.485,5.485,0,1,0-5.483-5.484A5.483,5.483,0,0,0,10713.259,1210.334Z"/><path d="M10735.422,1210.334a5.485,5.485,0,1,0-5.483-5.484A5.481,5.481,0,0,0,10735.422,1210.334Z"/><path d="M10402.987,1232.5a5.485,5.485,0,1,0-5.484-5.484A5.486,5.486,0,0,0,10402.987,1232.5Z"/><path d="M10425.15,1232.5a5.485,5.485,0,1,0-5.482-5.484A5.485,5.485,0,0,0,10425.15,1232.5Z"/><path d="M10447.312,1232.5a5.485,5.485,0,1,0-5.483-5.484A5.485,5.485,0,0,0,10447.312,1232.5Z"/><path d="M10469.475,1232.5a5.485,5.485,0,1,0-5.483-5.484A5.484,5.484,0,0,0,10469.475,1232.5Z"/><path d="M10491.638,1232.5a5.485,5.485,0,1,0-5.488-5.484A5.485,5.485,0,0,0,10491.638,1232.5Z"/><path d="M10513.8,1232.5a5.485,5.485,0,1,0-5.488-5.484A5.485,5.485,0,0,0,10513.8,1232.5Z"/><path d="M10535.965,1232.5a5.485,5.485,0,1,0-5.489-5.484A5.483,5.483,0,0,0,10535.965,1232.5Z"/><path d="M10558.125,1232.5a5.485,5.485,0,1,0-5.488-5.484A5.485,5.485,0,0,0,10558.125,1232.5Z"/><path d="M10580.288,1232.5a5.485,5.485,0,1,0-5.488-5.484A5.485,5.485,0,0,0,10580.288,1232.5Z"/><path d="M10602.446,1232.5a5.485,5.485,0,1,0-5.484-5.484A5.484,5.484,0,0,0,10602.446,1232.5Z"/><path d="M10624.609,1232.5a5.485,5.485,0,1,0-5.484-5.484A5.486,5.486,0,0,0,10624.609,1232.5Z"/><path d="M10646.774,1232.5a5.485,5.485,0,1,0-5.487-5.484A5.487,5.487,0,0,0,10646.774,1232.5Z"/><path d="M10668.934,1232.5a5.485,5.485,0,1,0-5.483-5.484A5.485,5.485,0,0,0,10668.934,1232.5Z"/><path d="M10691.1,1232.5a5.485,5.485,0,1,0-5.484-5.484A5.486,5.486,0,0,0,10691.1,1232.5Z"/><path d="M10713.259,1232.5a5.485,5.485,0,1,0-5.483-5.484A5.483,5.483,0,0,0,10713.259,1232.5Z"/><path d="M10735.422,1232.5a5.485,5.485,0,1,0-5.483-5.484A5.481,5.481,0,0,0,10735.422,1232.5Z"/><path d="M10402.987,1254.659a5.486,5.486,0,1,0-5.484-5.486A5.487,5.487,0,0,0,10402.987,1254.659Z"/><path d="M10425.15,1254.659a5.486,5.486,0,1,0-5.482-5.486A5.485,5.485,0,0,0,10425.15,1254.659Z"/><path d="M10447.312,1254.659a5.486,5.486,0,1,0-5.483-5.486A5.486,5.486,0,0,0,10447.312,1254.659Z"/><path d="M10469.475,1254.659a5.486,5.486,0,1,0-5.483-5.486A5.484,5.484,0,0,0,10469.475,1254.659Z"/><path d="M10491.638,1254.659a5.486,5.486,0,1,0-5.488-5.486A5.486,5.486,0,0,0,10491.638,1254.659Z"/><path d="M10513.8,1254.659a5.486,5.486,0,1,0-5.488-5.486A5.486,5.486,0,0,0,10513.8,1254.659Z"/><path d="M10535.965,1254.659a5.486,5.486,0,1,0-5.489-5.486A5.484,5.484,0,0,0,10535.965,1254.659Z"/><path d="M10558.125,1254.659a5.486,5.486,0,1,0-5.488-5.486A5.486,5.486,0,0,0,10558.125,1254.659Z"/><path d="M10580.288,1254.659a5.486,5.486,0,1,0-5.488-5.486A5.486,5.486,0,0,0,10580.288,1254.659Z"/><path d="M10602.446,1254.659a5.486,5.486,0,1,0-5.484-5.486A5.484,5.484,0,0,0,10602.446,1254.659Z"/><path d="M10624.609,1254.659a5.486,5.486,0,1,0-5.484-5.486A5.486,5.486,0,0,0,10624.609,1254.659Z"/><path d="M10646.774,1254.659a5.486,5.486,0,1,0-5.487-5.486A5.487,5.487,0,0,0,10646.774,1254.659Z"/><path d="M10402.987,1276.821a5.485,5.485,0,1,0-5.484-5.486A5.488,5.488,0,0,0,10402.987,1276.821Z"/><path d="M10425.15,1276.821a5.485,5.485,0,1,0-5.482-5.486A5.487,5.487,0,0,0,10425.15,1276.821Z"/><path d="M10447.312,1276.821a5.485,5.485,0,1,0-5.483-5.486A5.487,5.487,0,0,0,10447.312,1276.821Z"/><path d="M10469.475,1276.821a5.485,5.485,0,1,0-5.483-5.486A5.486,5.486,0,0,0,10469.475,1276.821Z"/><path d="M10491.638,1276.821a5.485,5.485,0,1,0-5.488-5.486A5.487,5.487,0,0,0,10491.638,1276.821Z"/><path d="M10513.8,1276.821a5.485,5.485,0,1,0-5.488-5.486A5.487,5.487,0,0,0,10513.8,1276.821Z"/><path d="M10535.965,1276.821a5.485,5.485,0,1,0-5.489-5.486A5.485,5.485,0,0,0,10535.965,1276.821Z"/><path d="M10558.125,1276.821a5.485,5.485,0,1,0-5.488-5.486A5.487,5.487,0,0,0,10558.125,1276.821Z"/><path d="M10580.288,1276.821a5.485,5.485,0,1,0-5.488-5.486A5.487,5.487,0,0,0,10580.288,1276.821Z"/><path d="M10602.446,1276.821a5.485,5.485,0,1,0-5.484-5.486A5.486,5.486,0,0,0,10602.446,1276.821Z"/><path d="M10624.609,1276.821a5.485,5.485,0,1,0-5.484-5.486A5.487,5.487,0,0,0,10624.609,1276.821Z"/><path d="M10646.774,1276.821a5.485,5.485,0,1,0-5.487-5.486A5.489,5.489,0,0,0,10646.774,1276.821Z"/><path d="M10668.934,1276.821a5.485,5.485,0,1,0-5.483-5.486A5.486,5.486,0,0,0,10668.934,1276.821Z"/><path d="M10691.1,1276.821a5.485,5.485,0,1,0-5.484-5.486A5.488,5.488,0,0,0,10691.1,1276.821Z"/><path d="M10402.987,1298.984a5.486,5.486,0,1,0-5.484-5.486A5.488,5.488,0,0,0,10402.987,1298.984Z"/><path d="M10425.15,1298.984a5.486,5.486,0,1,0-5.482-5.486A5.487,5.487,0,0,0,10425.15,1298.984Z"/><path d="M10447.312,1298.984a5.486,5.486,0,1,0-5.483-5.486A5.487,5.487,0,0,0,10447.312,1298.984Z"/><path d="M10469.475,1298.984a5.486,5.486,0,1,0-5.483-5.486A5.486,5.486,0,0,0,10469.475,1298.984Z"/><path d="M10491.638,1298.984a5.486,5.486,0,1,0-5.488-5.486A5.487,5.487,0,0,0,10491.638,1298.984Z"/><path d="M10513.8,1298.984a5.486,5.486,0,1,0-5.488-5.486A5.487,5.487,0,0,0,10513.8,1298.984Z"/><path d="M10535.965,1298.984a5.486,5.486,0,1,0-5.489-5.486A5.485,5.485,0,0,0,10535.965,1298.984Z"/><path d="M10558.125,1298.984a5.486,5.486,0,1,0-5.488-5.486A5.487,5.487,0,0,0,10558.125,1298.984Z"/><path d="M10580.288,1298.984a5.486,5.486,0,1,0-5.488-5.486A5.487,5.487,0,0,0,10580.288,1298.984Z"/><path d="M10602.446,1298.984a5.486,5.486,0,1,0-5.484-5.486A5.486,5.486,0,0,0,10602.446,1298.984Z"/><path d="M10624.609,1298.984a5.486,5.486,0,1,0-5.484-5.486A5.487,5.487,0,0,0,10624.609,1298.984Z"/><path d="M10646.774,1298.984a5.486,5.486,0,1,0-5.487-5.486A5.489,5.489,0,0,0,10646.774,1298.984Z"/><path d="M10668.934,1298.984a5.486,5.486,0,1,0-5.483-5.486A5.486,5.486,0,0,0,10668.934,1298.984Z"/><path d="M10691.1,1298.984a5.486,5.486,0,1,0-5.484-5.486A5.488,5.488,0,0,0,10691.1,1298.984Z"/><path d="M10402.987,1321.147a5.485,5.485,0,1,0-5.484-5.487A5.488,5.488,0,0,0,10402.987,1321.147Z"/><path d="M10425.15,1321.147a5.485,5.485,0,1,0-5.482-5.487A5.487,5.487,0,0,0,10425.15,1321.147Z"/><path d="M10447.312,1321.147a5.485,5.485,0,1,0-5.483-5.487A5.487,5.487,0,0,0,10447.312,1321.147Z"/><path d="M10469.475,1321.147a5.485,5.485,0,1,0-5.483-5.487A5.486,5.486,0,0,0,10469.475,1321.147Z"/><path d="M10491.638,1321.147a5.485,5.485,0,1,0-5.488-5.487A5.487,5.487,0,0,0,10491.638,1321.147Z"/><path d="M10513.8,1321.147a5.485,5.485,0,1,0-5.488-5.487A5.487,5.487,0,0,0,10513.8,1321.147Z"/><path d="M10535.965,1321.147a5.485,5.485,0,1,0-5.489-5.487A5.485,5.485,0,0,0,10535.965,1321.147Z"/><path d="M10558.125,1321.147a5.485,5.485,0,1,0-5.488-5.487A5.487,5.487,0,0,0,10558.125,1321.147Z"/><path d="M10580.288,1321.147a5.485,5.485,0,1,0-5.488-5.487A5.487,5.487,0,0,0,10580.288,1321.147Z"/><path d="M10602.446,1321.147a5.485,5.485,0,1,0-5.484-5.487A5.486,5.486,0,0,0,10602.446,1321.147Z"/><path d="M10624.609,1321.147a5.485,5.485,0,1,0-5.484-5.487A5.488,5.488,0,0,0,10624.609,1321.147Z"/><path d="M10646.774,1321.147a5.485,5.485,0,1,0-5.487-5.487A5.489,5.489,0,0,0,10646.774,1321.147Z"/><path d="M10668.934,1321.147a5.485,5.485,0,1,0-5.483-5.487A5.487,5.487,0,0,0,10668.934,1321.147Z"/><path d="M10447.312,1343.309a5.485,5.485,0,1,0-5.483-5.486A5.487,5.487,0,0,0,10447.312,1343.309Z"/><path d="M10469.475,1343.309a5.485,5.485,0,1,0-5.483-5.486A5.485,5.485,0,0,0,10469.475,1343.309Z"/><path d="M10491.638,1343.309a5.485,5.485,0,1,0-5.488-5.486A5.487,5.487,0,0,0,10491.638,1343.309Z"/><path d="M10513.8,1343.309a5.485,5.485,0,1,0-5.488-5.486A5.487,5.487,0,0,0,10513.8,1343.309Z"/><path d="M10535.965,1343.309a5.485,5.485,0,1,0-5.489-5.486A5.485,5.485,0,0,0,10535.965,1343.309Z"/><path d="M10558.125,1343.309a5.485,5.485,0,1,0-5.488-5.486A5.487,5.487,0,0,0,10558.125,1343.309Z"/><path d="M10580.288,1343.309a5.485,5.485,0,1,0-5.488-5.486A5.487,5.487,0,0,0,10580.288,1343.309Z"/><path d="M10602.446,1343.309a5.485,5.485,0,1,0-5.484-5.486A5.486,5.486,0,0,0,10602.446,1343.309Z"/><path d="M10624.609,1343.309a5.485,5.485,0,1,0-5.484-5.486A5.487,5.487,0,0,0,10624.609,1343.309Z"/><path d="M10646.774,1343.309a5.485,5.485,0,1,0-5.487-5.486A5.489,5.489,0,0,0,10646.774,1343.309Z"/><path d="M10447.312,1365.47a5.484,5.484,0,1,0-5.483-5.484A5.485,5.485,0,0,0,10447.312,1365.47Z"/><path d="M10469.475,1365.47a5.484,5.484,0,1,0-5.483-5.484A5.484,5.484,0,0,0,10469.475,1365.47Z"/><path d="M10491.638,1365.47a5.484,5.484,0,1,0-5.488-5.484A5.485,5.485,0,0,0,10491.638,1365.47Z"/><path d="M10513.8,1365.47a5.484,5.484,0,1,0-5.488-5.484A5.485,5.485,0,0,0,10513.8,1365.47Z"/><path d="M10535.965,1365.47a5.484,5.484,0,1,0-5.489-5.484A5.483,5.483,0,0,0,10535.965,1365.47Z"/><path d="M10558.125,1365.47a5.484,5.484,0,1,0-5.488-5.484A5.485,5.485,0,0,0,10558.125,1365.47Z"/><path d="M10580.288,1365.47a5.484,5.484,0,1,0-5.488-5.484A5.485,5.485,0,0,0,10580.288,1365.47Z"/><path d="M10602.446,1365.47a5.484,5.484,0,1,0-5.484-5.484A5.484,5.484,0,0,0,10602.446,1365.47Z"/><path d="M10624.609,1365.47a5.484,5.484,0,1,0-5.484-5.484A5.486,5.486,0,0,0,10624.609,1365.47Z"/><path d="M10646.774,1365.47a5.484,5.484,0,1,0-5.487-5.484A5.487,5.487,0,0,0,10646.774,1365.47Z"/><path d="M10668.934,1365.47a5.484,5.484,0,1,0-5.483-5.484A5.485,5.485,0,0,0,10668.934,1365.47Z"/><path d="M10447.312,1387.632a5.484,5.484,0,1,0-5.483-5.484A5.485,5.485,0,0,0,10447.312,1387.632Z"/><path d="M10469.475,1387.632a5.484,5.484,0,1,0-5.483-5.484A5.484,5.484,0,0,0,10469.475,1387.632Z"/><path d="M10491.638,1387.632a5.484,5.484,0,1,0-5.488-5.484A5.485,5.485,0,0,0,10491.638,1387.632Z"/><path d="M10513.8,1387.632a5.484,5.484,0,1,0-5.488-5.484A5.485,5.485,0,0,0,10513.8,1387.632Z"/><path d="M10535.965,1387.632a5.484,5.484,0,1,0-5.489-5.484A5.483,5.483,0,0,0,10535.965,1387.632Z"/><path d="M10558.125,1387.632a5.484,5.484,0,1,0-5.488-5.484A5.485,5.485,0,0,0,10558.125,1387.632Z"/><path d="M10580.288,1387.632a5.484,5.484,0,1,0-5.488-5.484A5.485,5.485,0,0,0,10580.288,1387.632Z"/><path d="M10602.446,1387.632a5.484,5.484,0,1,0-5.484-5.484A5.484,5.484,0,0,0,10602.446,1387.632Z"/><path d="M10624.609,1387.632a5.484,5.484,0,1,0-5.484-5.484A5.486,5.486,0,0,0,10624.609,1387.632Z"/><path d="M10646.774,1387.632a5.484,5.484,0,1,0-5.487-5.484A5.487,5.487,0,0,0,10646.774,1387.632Z"/><path d="M10469.475,1409.8a5.484,5.484,0,1,0-5.483-5.484A5.484,5.484,0,0,0,10469.475,1409.8Z"/><path d="M10491.638,1409.8a5.484,5.484,0,1,0-5.488-5.484A5.485,5.485,0,0,0,10491.638,1409.8Z"/><path d="M10513.8,1409.8a5.484,5.484,0,1,0-5.488-5.484A5.485,5.485,0,0,0,10513.8,1409.8Z"/><path d="M10535.965,1409.8a5.484,5.484,0,1,0-5.489-5.484A5.483,5.483,0,0,0,10535.965,1409.8Z"/><path d="M10558.125,1409.8a5.484,5.484,0,1,0-5.488-5.484A5.485,5.485,0,0,0,10558.125,1409.8Z"/><path d="M10580.288,1409.8a5.484,5.484,0,1,0-5.488-5.484A5.485,5.485,0,0,0,10580.288,1409.8Z"/><path d="M10602.446,1409.8a5.484,5.484,0,1,0-5.484-5.484A5.484,5.484,0,0,0,10602.446,1409.8Z"/><path d="M10624.609,1409.8a5.484,5.484,0,1,0-5.484-5.484A5.486,5.486,0,0,0,10624.609,1409.8Z"/><path d="M10469.475,1431.957a5.484,5.484,0,1,0-5.483-5.484A5.483,5.483,0,0,0,10469.475,1431.957Z"/><path d="M10491.638,1431.957a5.484,5.484,0,1,0-5.488-5.484A5.484,5.484,0,0,0,10491.638,1431.957Z"/><path d="M10513.8,1431.957a5.484,5.484,0,1,0-5.488-5.484A5.484,5.484,0,0,0,10513.8,1431.957Z"/><path d="M10535.965,1431.957a5.484,5.484,0,1,0-5.489-5.484A5.483,5.483,0,0,0,10535.965,1431.957Z"/><path d="M10558.125,1431.957a5.484,5.484,0,1,0-5.488-5.484A5.484,5.484,0,0,0,10558.125,1431.957Z"/><path d="M10580.288,1431.957a5.484,5.484,0,1,0-5.488-5.484A5.484,5.484,0,0,0,10580.288,1431.957Z"/><path d="M10602.446,1431.957a5.484,5.484,0,1,0-5.484-5.484A5.483,5.483,0,0,0,10602.446,1431.957Z"/><path d="M10469.475,1454.12a5.484,5.484,0,1,0-5.483-5.484A5.484,5.484,0,0,0,10469.475,1454.12Z"/><path d="M10491.638,1454.12a5.484,5.484,0,1,0-5.488-5.484A5.485,5.485,0,0,0,10491.638,1454.12Z"/><path d="M10513.8,1454.12a5.484,5.484,0,1,0-5.488-5.484A5.485,5.485,0,0,0,10513.8,1454.12Z"/><path d="M10535.965,1454.12a5.484,5.484,0,1,0-5.489-5.484A5.483,5.483,0,0,0,10535.965,1454.12Z"/><path d="M10558.125,1454.12a5.484,5.484,0,1,0-5.488-5.484A5.485,5.485,0,0,0,10558.125,1454.12Z"/><path d="M10580.288,1454.12a5.484,5.484,0,1,0-5.488-5.484A5.485,5.485,0,0,0,10580.288,1454.12Z"/><path d="M10602.446,1454.12a5.484,5.484,0,1,0-5.484-5.484A5.484,5.484,0,0,0,10602.446,1454.12Z"/><path d="M10624.609,1454.12a5.484,5.484,0,1,0-5.484-5.484A5.486,5.486,0,0,0,10624.609,1454.12Z"/><path d="M10469.475,1476.283a5.485,5.485,0,1,0-5.483-5.485A5.484,5.484,0,0,0,10469.475,1476.283Z"/><path d="M10491.638,1476.283a5.485,5.485,0,1,0-5.488-5.485A5.485,5.485,0,0,0,10491.638,1476.283Z"/><path d="M10513.8,1476.283a5.485,5.485,0,1,0-5.488-5.485A5.485,5.485,0,0,0,10513.8,1476.283Z"/><path d="M10535.965,1476.283a5.485,5.485,0,1,0-5.489-5.485A5.484,5.484,0,0,0,10535.965,1476.283Z"/><path d="M10558.125,1476.283a5.485,5.485,0,1,0-5.488-5.485A5.485,5.485,0,0,0,10558.125,1476.283Z"/><path d="M10580.288,1476.283a5.485,5.485,0,1,0-5.488-5.485A5.485,5.485,0,0,0,10580.288,1476.283Z"/><path d="M10602.446,1476.283a5.485,5.485,0,1,0-5.484-5.485A5.484,5.484,0,0,0,10602.446,1476.283Z"/><path d="M10624.609,1476.283a5.485,5.485,0,1,0-5.484-5.485A5.486,5.486,0,0,0,10624.609,1476.283Z"/><path d="M10646.774,1476.283a5.485,5.485,0,1,0-5.487-5.485A5.487,5.487,0,0,0,10646.774,1476.283Z"/><path d="M10668.934,1476.283a5.485,5.485,0,1,0-5.483-5.485A5.485,5.485,0,0,0,10668.934,1476.283Z"/><path d="M10469.475,1498.445a5.485,5.485,0,1,0-5.483-5.484A5.484,5.484,0,0,0,10469.475,1498.445Z"/><path d="M10491.638,1498.445a5.485,5.485,0,1,0-5.488-5.484A5.485,5.485,0,0,0,10491.638,1498.445Z"/><path d="M10513.8,1498.445a5.485,5.485,0,1,0-5.488-5.484A5.485,5.485,0,0,0,10513.8,1498.445Z"/><path d="M10535.965,1498.445a5.485,5.485,0,1,0-5.489-5.484A5.483,5.483,0,0,0,10535.965,1498.445Z"/><path d="M10558.125,1498.445a5.485,5.485,0,1,0-5.488-5.484A5.485,5.485,0,0,0,10558.125,1498.445Z"/><path d="M10580.288,1498.445a5.485,5.485,0,1,0-5.488-5.484A5.485,5.485,0,0,0,10580.288,1498.445Z"/><path d="M10602.446,1498.445a5.485,5.485,0,1,0-5.484-5.484A5.484,5.484,0,0,0,10602.446,1498.445Z"/><path d="M10624.609,1498.445a5.485,5.485,0,1,0-5.484-5.484A5.486,5.486,0,0,0,10624.609,1498.445Z"/><path d="M10646.774,1498.445a5.485,5.485,0,1,0-5.487-5.484A5.487,5.487,0,0,0,10646.774,1498.445Z"/><path d="M10668.934,1498.445a5.485,5.485,0,1,0-5.483-5.484A5.485,5.485,0,0,0,10668.934,1498.445Z"/><path d="M10469.475,1520.608a5.486,5.486,0,1,0-5.483-5.485A5.484,5.484,0,0,0,10469.475,1520.608Z"/><path d="M10491.638,1520.608a5.486,5.486,0,1,0-5.488-5.485A5.485,5.485,0,0,0,10491.638,1520.608Z"/><path d="M10513.8,1520.608a5.486,5.486,0,1,0-5.488-5.485A5.485,5.485,0,0,0,10513.8,1520.608Z"/><path d="M10535.965,1520.608a5.486,5.486,0,1,0-5.489-5.485A5.484,5.484,0,0,0,10535.965,1520.608Z"/><path d="M10558.125,1520.608a5.486,5.486,0,1,0-5.488-5.485A5.485,5.485,0,0,0,10558.125,1520.608Z"/><path d="M10580.288,1520.608a5.486,5.486,0,1,0-5.488-5.485A5.485,5.485,0,0,0,10580.288,1520.608Z"/><path d="M10602.446,1520.608a5.486,5.486,0,1,0-5.484-5.485A5.484,5.484,0,0,0,10602.446,1520.608Z"/><path d="M10624.609,1520.608a5.486,5.486,0,1,0-5.484-5.485A5.486,5.486,0,0,0,10624.609,1520.608Z"/><path d="M10646.774,1520.608a5.486,5.486,0,1,0-5.487-5.485A5.487,5.487,0,0,0,10646.774,1520.608Z"/><path d="M10668.934,1520.608a5.486,5.486,0,1,0-5.483-5.485A5.485,5.485,0,0,0,10668.934,1520.608Z"/><path d="M10469.475,1542.77a5.485,5.485,0,1,0-5.483-5.484A5.484,5.484,0,0,0,10469.475,1542.77Z"/><path d="M10491.638,1542.77a5.485,5.485,0,1,0-5.488-5.484A5.485,5.485,0,0,0,10491.638,1542.77Z"/><path d="M10513.8,1542.77a5.485,5.485,0,1,0-5.488-5.484A5.485,5.485,0,0,0,10513.8,1542.77Z"/><path d="M10535.965,1542.77a5.485,5.485,0,1,0-5.489-5.484A5.483,5.483,0,0,0,10535.965,1542.77Z"/><path d="M10558.125,1542.77a5.485,5.485,0,1,0-5.488-5.484A5.485,5.485,0,0,0,10558.125,1542.77Z"/><path d="M10580.288,1542.77a5.485,5.485,0,1,0-5.488-5.484A5.485,5.485,0,0,0,10580.288,1542.77Z"/><path d="M10602.446,1542.77a5.485,5.485,0,1,0-5.484-5.484A5.484,5.484,0,0,0,10602.446,1542.77Z"/><path d="M10624.609,1542.77a5.485,5.485,0,1,0-5.484-5.484A5.486,5.486,0,0,0,10624.609,1542.77Z"/><path d="M10646.774,1542.77a5.485,5.485,0,1,0-5.487-5.484A5.487,5.487,0,0,0,10646.774,1542.77Z"/><path d="M10447.312,1564.933a5.485,5.485,0,1,0-5.483-5.484A5.487,5.487,0,0,0,10447.312,1564.933Z"/><path d="M10469.475,1564.933a5.485,5.485,0,1,0-5.483-5.484A5.485,5.485,0,0,0,10469.475,1564.933Z"/><path d="M10491.638,1564.933a5.485,5.485,0,1,0-5.488-5.484A5.486,5.486,0,0,0,10491.638,1564.933Z"/><path d="M10513.8,1564.933a5.485,5.485,0,1,0-5.488-5.484A5.486,5.486,0,0,0,10513.8,1564.933Z"/><path d="M10535.965,1564.933a5.485,5.485,0,1,0-5.489-5.484A5.485,5.485,0,0,0,10535.965,1564.933Z"/><path d="M10558.125,1564.933a5.485,5.485,0,1,0-5.488-5.484A5.486,5.486,0,0,0,10558.125,1564.933Z"/><path d="M10580.288,1564.933a5.485,5.485,0,1,0-5.488-5.484A5.486,5.486,0,0,0,10580.288,1564.933Z"/><path d="M10602.446,1564.933a5.485,5.485,0,1,0-5.484-5.484A5.485,5.485,0,0,0,10602.446,1564.933Z"/><path d="M10624.609,1564.933a5.485,5.485,0,1,0-5.484-5.484A5.487,5.487,0,0,0,10624.609,1564.933Z"/><path d="M10447.312,1587.1a5.485,5.485,0,1,0-5.483-5.487A5.488,5.488,0,0,0,10447.312,1587.1Z"/><path d="M10469.475,1587.1a5.485,5.485,0,1,0-5.483-5.487A5.486,5.486,0,0,0,10469.475,1587.1Z"/><path d="M10491.638,1587.1a5.485,5.485,0,1,0-5.488-5.487A5.488,5.488,0,0,0,10491.638,1587.1Z"/><path d="M10513.8,1587.1a5.485,5.485,0,1,0-5.488-5.487A5.488,5.488,0,0,0,10513.8,1587.1Z"/><path d="M10535.965,1587.1a5.485,5.485,0,1,0-5.489-5.487A5.486,5.486,0,0,0,10535.965,1587.1Z"/><path d="M10558.125,1587.1a5.485,5.485,0,1,0-5.488-5.487A5.488,5.488,0,0,0,10558.125,1587.1Z"/><path d="M10580.288,1587.1a5.485,5.485,0,1,0-5.488-5.487A5.488,5.488,0,0,0,10580.288,1587.1Z"/><path d="M10602.446,1587.1a5.485,5.485,0,1,0-5.484-5.487A5.487,5.487,0,0,0,10602.446,1587.1Z"/><path d="M10624.609,1587.1a5.485,5.485,0,1,0-5.484-5.487A5.488,5.488,0,0,0,10624.609,1587.1Z"/><path d="M10447.312,1609.258a5.485,5.485,0,1,0-5.483-5.486A5.487,5.487,0,0,0,10447.312,1609.258Z"/><path d="M10469.475,1609.258a5.485,5.485,0,1,0-5.483-5.486A5.486,5.486,0,0,0,10469.475,1609.258Z"/><path d="M10491.638,1609.258a5.485,5.485,0,1,0-5.488-5.486A5.487,5.487,0,0,0,10491.638,1609.258Z"/><path d="M10513.8,1609.258a5.485,5.485,0,1,0-5.488-5.486A5.487,5.487,0,0,0,10513.8,1609.258Z"/><path d="M10535.965,1609.258a5.485,5.485,0,1,0-5.489-5.486A5.485,5.485,0,0,0,10535.965,1609.258Z"/><path d="M10558.125,1609.258a5.485,5.485,0,1,0-5.488-5.486A5.487,5.487,0,0,0,10558.125,1609.258Z"/><path d="M10580.288,1609.258a5.485,5.485,0,1,0-5.488-5.486A5.487,5.487,0,0,0,10580.288,1609.258Z"/><path d="M10602.446,1609.258a5.485,5.485,0,1,0-5.484-5.486A5.486,5.486,0,0,0,10602.446,1609.258Z"/><path d="M10624.609,1609.258a5.485,5.485,0,1,0-5.484-5.486A5.487,5.487,0,0,0,10624.609,1609.258Z"/><path d="M10447.312,1631.421a5.486,5.486,0,1,0-5.483-5.487A5.487,5.487,0,0,0,10447.312,1631.421Z"/><path d="M10469.475,1631.421a5.486,5.486,0,1,0-5.483-5.487A5.486,5.486,0,0,0,10469.475,1631.421Z"/><path d="M10491.638,1631.421a5.486,5.486,0,1,0-5.488-5.487A5.487,5.487,0,0,0,10491.638,1631.421Z"/><path d="M10513.8,1631.421a5.486,5.486,0,1,0-5.488-5.487A5.487,5.487,0,0,0,10513.8,1631.421Z"/><path d="M10535.965,1631.421a5.486,5.486,0,1,0-5.489-5.487A5.485,5.485,0,0,0,10535.965,1631.421Z"/><path d="M10558.125,1631.421a5.486,5.486,0,1,0-5.488-5.487A5.487,5.487,0,0,0,10558.125,1631.421Z"/><path d="M10580.288,1631.421a5.486,5.486,0,1,0-5.488-5.487A5.487,5.487,0,0,0,10580.288,1631.421Z"/><path d="M10602.446,1631.421a5.486,5.486,0,1,0-5.484-5.487A5.486,5.486,0,0,0,10602.446,1631.421Z"/><path d="M10491.638,1653.583a5.485,5.485,0,1,0-5.488-5.486A5.487,5.487,0,0,0,10491.638,1653.583Z"/><path d="M10513.8,1653.583a5.485,5.485,0,1,0-5.488-5.486A5.487,5.487,0,0,0,10513.8,1653.583Z"/><path d="M10535.965,1653.583a5.485,5.485,0,1,0-5.489-5.486A5.485,5.485,0,0,0,10535.965,1653.583Z"/><path d="M10558.125,1653.583a5.485,5.485,0,1,0-5.488-5.486A5.487,5.487,0,0,0,10558.125,1653.583Z"/><path d="M10580.288,1653.583a5.485,5.485,0,1,0-5.488-5.486A5.487,5.487,0,0,0,10580.288,1653.583Z"/><path d="M10602.446,1653.583a5.485,5.485,0,1,0-5.484-5.486A5.486,5.486,0,0,0,10602.446,1653.583Z"/><path d="M10513.8,1675.746a5.485,5.485,0,1,0-5.488-5.487A5.487,5.487,0,0,0,10513.8,1675.746Z"/><path d="M10535.965,1675.746a5.485,5.485,0,1,0-5.489-5.487A5.485,5.485,0,0,0,10535.965,1675.746Z"/><path d="M10558.125,1675.746a5.485,5.485,0,1,0-5.488-5.487A5.487,5.487,0,0,0,10558.125,1675.746Z"/><path d="M10580.288,1675.746a5.485,5.485,0,1,0-5.488-5.487A5.487,5.487,0,0,0,10580.288,1675.746Z"/><path d="M10602.446,1675.746a5.485,5.485,0,1,0-5.484-5.487A5.486,5.486,0,0,0,10602.446,1675.746Z"/><path d="M10624.609,1675.746a5.485,5.485,0,1,0-5.484-5.487A5.488,5.488,0,0,0,10624.609,1675.746Z"/><path d="M10624.609,1697.906a5.484,5.484,0,1,0-5.484-5.484A5.486,5.486,0,0,0,10624.609,1697.906Z"/><path d="M10624.609,1720.069a5.484,5.484,0,1,0-5.484-5.484A5.486,5.486,0,0,0,10624.609,1720.069Z"/><path d="M10646.774,1720.069a5.484,5.484,0,1,0-5.487-5.484A5.487,5.487,0,0,0,10646.774,1720.069Z"/><path d="M10624.609,1742.231a5.484,5.484,0,1,0-5.484-5.484A5.486,5.486,0,0,0,10624.609,1742.231Z"/><path d="M10646.774,1742.231a5.484,5.484,0,1,0-5.487-5.484A5.487,5.487,0,0,0,10646.774,1742.231Z"/><path d="M10646.774,1764.394a5.484,5.484,0,1,0-5.487-5.484A5.487,5.487,0,0,0,10646.774,1764.394Z"/><path d="M10668.934,1764.394a5.484,5.484,0,1,0-5.483-5.484A5.485,5.485,0,0,0,10668.934,1764.394Z"/><path d="M10691.1,1764.394a5.484,5.484,0,1,0-5.484-5.484A5.486,5.486,0,0,0,10691.1,1764.394Z"/><path d="M10646.774,1786.557a5.484,5.484,0,1,0-5.487-5.485A5.488,5.488,0,0,0,10646.774,1786.557Z"/><path d="M10668.934,1786.557a5.484,5.484,0,1,0-5.483-5.485A5.486,5.486,0,0,0,10668.934,1786.557Z"/><path d="M10691.1,1786.557a5.484,5.484,0,1,0-5.484-5.485A5.487,5.487,0,0,0,10691.1,1786.557Z"/><path d="M10713.259,1786.557a5.484,5.484,0,1,0-5.483-5.485A5.483,5.483,0,0,0,10713.259,1786.557Z"/><path d="M10735.422,1786.557a5.484,5.484,0,1,0-5.483-5.485A5.482,5.482,0,0,0,10735.422,1786.557Z"/><path d="M10757.584,1786.557a5.484,5.484,0,1,0-5.484-5.485A5.484,5.484,0,0,0,10757.584,1786.557Z"/><path d="M10779.747,1786.557a5.484,5.484,0,1,0-5.484-5.485A5.483,5.483,0,0,0,10779.747,1786.557Z"/><path d="M10801.909,1786.557a5.484,5.484,0,1,0-5.484-5.485A5.483,5.483,0,0,0,10801.909,1786.557Z"/><path d="M10646.774,1808.719a5.485,5.485,0,1,0-5.487-5.484A5.487,5.487,0,0,0,10646.774,1808.719Z"/><path d="M10668.934,1808.719a5.485,5.485,0,1,0-5.483-5.484A5.485,5.485,0,0,0,10668.934,1808.719Z"/><path d="M10691.1,1808.719a5.485,5.485,0,1,0-5.484-5.484A5.486,5.486,0,0,0,10691.1,1808.719Z"/><path d="M10713.259,1808.719a5.485,5.485,0,1,0-5.483-5.484A5.483,5.483,0,0,0,10713.259,1808.719Z"/><path d="M10735.422,1808.719a5.485,5.485,0,1,0-5.483-5.484A5.481,5.481,0,0,0,10735.422,1808.719Z"/><path d="M10757.584,1808.719a5.485,5.485,0,1,0-5.484-5.484A5.483,5.483,0,0,0,10757.584,1808.719Z"/><path d="M10779.747,1808.719a5.485,5.485,0,1,0-5.484-5.484A5.483,5.483,0,0,0,10779.747,1808.719Z"/><path d="M10801.909,1808.719a5.485,5.485,0,1,0-5.484-5.484A5.482,5.482,0,0,0,10801.909,1808.719Z"/></g></svg>