<svg xmlns="http://www.w3.org/2000/svg" width="105.483" height="88.976" viewBox="0 0 105.483 88.976"><defs><style>.a{fill:#bbab94;}</style></defs><g transform="translate(0.001 -40.066)"><path class="a" d="M243.331,205.667a3.3,3.3,0,0,1-3.3-3.3V179.3a3.3,3.3,0,1,1,6.592,0v23.071A3.3,3.3,0,0,1,243.331,205.667Z" transform="translate(-190.59 -107.936)"/><path class="a" d="M104.087,114.279,63.055,45.893a12.042,12.042,0,0,0-20.628,0L1.4,114.279a9.761,9.761,0,0,0,8.359,14.764H95.728a9.762,9.762,0,0,0,8.359-14.764Zm-8.359,8.172H9.755a3.161,3.161,0,0,1-2.707-4.781L48.08,49.284a5.443,5.443,0,0,1,9.323,0l41.032,68.386A3.162,3.162,0,0,1,95.728,122.45Z" transform="translate(0)"/><circle class="a" cx="4.944" cy="4.944" r="4.944" transform="translate(47.797 101.027)"/></g></svg>