<svg xmlns="http://www.w3.org/2000/svg" width="17.144" height="17.144" viewBox="0 0 17.144 17.144"><defs><style>.a{fill:#fff;}</style></defs><g transform="translate(-1752.995 -72.925)"><path class="a" d="M1766.1,75.986a1.005,1.005,0,1,0,1.006,1A1.005,1.005,0,0,0,1766.1,75.986Z"/><path class="a" d="M1761.637,77.275a4.222,4.222,0,1,0,4.222,4.222A4.227,4.227,0,0,0,1761.637,77.275Zm0,6.926a2.7,2.7,0,1,1,2.705-2.7A2.707,2.707,0,0,1,1761.637,84.2Z"/><path class="a" d="M1764.989,90.069h-6.845a5.155,5.155,0,0,1-5.149-5.15V78.075a5.155,5.155,0,0,1,5.149-5.15h6.845a5.156,5.156,0,0,1,5.15,5.15v6.844A5.156,5.156,0,0,1,1764.989,90.069Zm-6.845-15.531a3.54,3.54,0,0,0-3.536,3.537v6.844a3.54,3.54,0,0,0,3.536,3.537h6.845a3.541,3.541,0,0,0,3.537-3.537V78.075a3.541,3.541,0,0,0-3.537-3.537Z"/></g></svg>