<svg xmlns="http://www.w3.org/2000/svg" width="82.522" height="82.521" viewBox="0 0 82.522 82.521"><defs><style>.a{fill:#00fb7d;}.b{fill:#fff;fill-rule:evenodd;}</style></defs><g transform="translate(-1629.06 -13868.91)"><path class="a" d="M1670.322,13951.432a41.261,41.261,0,1,1,41.26-41.261A41.308,41.308,0,0,1,1670.322,13951.432Z"/><path class="b" d="M1672.269,13883.313a24.907,24.907,0,0,0-20.933,38.411l-3.784,8.336a2.175,2.175,0,0,0,1.981,3.075,2.153,2.153,0,0,0,.575-.078l10.427-2.86a24.91,24.91,0,1,0,11.734-46.884Zm0,45.472a20.532,20.532,0,0,1-10.353-2.8,2.18,2.18,0,0,0-1.673-.22l-6.812,1.869,2.373-5.227a2.176,2.176,0,0,0-.217-2.172,20.557,20.557,0,1,1,16.682,8.549Z"/><path class="b" d="M1681.846,13911.954c-1.043-.623-2.4-1.32-3.63-.817-.942.387-1.545,1.861-2.155,2.615a.9.9,0,0,1-1.17.254,16.439,16.439,0,0,1-8.2-7.029,1.006,1.006,0,0,1,.127-1.374,5.53,5.53,0,0,0,1.49-2.42,5.286,5.286,0,0,0-.666-2.863c-.495-1.065-1.048-2.584-2.114-3.187a2.9,2.9,0,0,0-3.147.468,6.389,6.389,0,0,0-2.215,5.062,7.148,7.148,0,0,0,.2,1.605,13.3,13.3,0,0,0,1.54,3.551,28.139,28.139,0,0,0,1.609,2.445,24.824,24.824,0,0,0,6.975,6.477,21.076,21.076,0,0,0,4.35,2.068c1.7.563,3.223,1.15,5.064.8a6.132,6.132,0,0,0,4.591-3.416,2.958,2.958,0,0,0,.213-1.742C1684.442,13913.249,1682.817,13912.535,1681.846,13911.954Z"/></g></svg>